<svg width="254" height="112" viewBox="0 0 254 112" fill="none" xmlns="http://www.w3.org/2000/svg">
<path d="M28.1533 8.61499H29.5176L29.7656 8.90574H47.1289L51.2217 9.05112L60.5234 9.1965L60.6475 9.48725V12.5402L60.5234 14.5754V22.4257L60.8955 23.5888L61.7637 24.0249L63.376 24.3156H66.8486L73.1738 24.1703H79.8711L80.1191 24.3156H95.8701L97.6064 24.6064L97.8545 25.3333L97.6064 26.9324L97.1104 28.9677L96.7383 29.2584H92.0254L85.8242 29.4038H77.0186L76.8945 29.2584H70.4453L62.8799 29.4038L60.6475 29.5492V38.2718H60.3994V69.673L60.5234 75.1973L60.6475 75.6335L61.0195 75.7789H64.4922L64.7402 75.6335H69.7012V75.9242H71.1895L71.6855 75.4881H72.4297L72.6777 75.6335L74.042 75.7789H75.2822L75.4062 75.4881H76.7705L77.5146 75.6335H78.5068L79.0029 75.3427H79.7471L79.9951 75.4881V75.7789H85.9482L86.0723 76.215L85.3281 78.541L85.0801 80.2855L84.0879 80.1401V80.4309H82.9717L83.0957 80.1401L83.4678 79.9948H82.5996V80.2855H82.8477V80.5763H82.1035L81.8555 79.9948L81.2354 79.8494L81.1113 80.5763H80.4912L80.2432 80.4309L80.1191 79.9948L79.499 80.1401L79.127 80.5763L79.0029 79.9948H77.7627L77.6387 80.5763H76.2744L75.9023 80.1401L75.2822 79.9948V80.4309L74.5381 80.5763L73.6699 80.4309L73.0498 80.2855H68.585L61.1436 80.4309L60.5234 80.5763L60.1514 83.6292L59.7793 84.0653L59.9033 84.6468L60.0273 84.7922V94.2416L59.7793 94.6778L59.6553 97.0038L59.5312 97.1492L58.291 97.2945L35.3467 97.7307H31.0059L29.6416 97.5853H28.2773L27.5332 97.4399L25.5488 97.5853L6.69727 97.8761H5.08496L4.34082 97.7307L4.2168 97.2945L4.71289 91.3341L4.58887 90.7526L4.83691 89.735V89.1535L4.58887 89.0081L4.96094 88.1358V78.541L5.08496 77.5234L4.96094 77.2326V74.7612L4.83691 73.7436L5.08496 72.4352V68.8008L5.20898 66.7655V64.5849L4.71289 64.2941L4.96094 63.7126H5.20898V46.9943L5.45703 46.5582V44.3776L5.20898 44.0868V41.0339L5.45703 40.5978L5.20898 40.1617V30.4214L4.96094 14.8662V9.1965L6.44922 9.05112L6.82129 8.90574L8.68164 8.76037H11.7822L12.2783 8.90574H15.1309L28.1533 8.61499ZM28.1533 13.1217L27.6572 13.4124L23.8125 13.7032H22.4482L21.8281 13.267L20.96 13.4124L20.7119 13.7032H19.8438L19.4717 13.4124H18.8516L18.1074 13.7032H16.4951L16.3711 13.5578H14.8828L14.0146 13.8485H13.1465L12.6504 13.5578H10.79L9.30176 13.7032L9.17773 13.8485V23.298L9.42578 41.3247L9.17773 41.6154L9.30176 45.686L9.17773 45.8313L9.30176 56.2984V62.5496L9.05371 62.695V73.5982L8.92969 84.2107L8.55762 84.5014L8.80566 92.061L9.17773 92.9333L9.67383 93.224H17.6113L23.9365 93.0786H28.2773L28.7734 93.5148L29.3936 93.3694V92.9333H31.502L31.874 93.224H39.9355L49.3613 93.0786H55.1904L56.0586 91.7702L56.1826 91.3341L56.3066 80.2855L56.5547 79.9948V78.9771L56.3066 78.3956L56.4307 77.0872L56.1826 59.4967V57.6068L56.4307 57.3161V44.5229L56.8027 44.0868V43.2146L56.4307 42.4877V40.8885H56.6787L56.8027 40.4524L56.4307 39.8709V38.1264L56.5547 37.981V35.0735L56.3066 18.646V17.0468L56.1826 14.7208L55.8105 13.7032H42.292L42.0439 13.4124H39.0674L31.626 13.5578H29.0215L28.7734 13.1217H28.1533Z" fill="#010000"/>
<path d="M131.837 24.0249H132.085L132.581 24.6064H143.123L143.495 25.0425L144.239 25.1879V24.6064H146.596L147.216 24.8972L154.781 24.7518L157.262 24.6064L157.758 24.8972H158.874L158.998 24.6064H160.61L161.479 24.461L161.851 24.8972H163.711L164.579 24.3157H165.323L165.571 24.8972H178.47L178.594 25.0425H181.074L188.888 24.8972L194.221 24.7518L194.965 25.0425H195.709L195.957 24.8972H196.825L197.817 25.0425L198.562 24.6064L199.43 24.8972L217.289 25.0425L219.273 25.1879L232.916 24.8972H234.776L235.148 25.1879H236.017L236.141 24.7518L237.753 24.8972H239.117L239.737 24.7518L240.233 25.0425H249.907L249.783 25.7694L248.791 29.4038L246.931 37.8357L245.318 45.8314L243.086 57.4615L242.218 61.9681L241.598 65.3118L241.102 68.0739L240.233 73.4529L239.241 78.541L238.993 79.2679L237.877 79.704H237.629L237.505 80.1402L237.009 79.704L236.761 79.8494V79.5587H235.272L235.024 80.1402L234.776 80.2855V79.8494L234.28 80.1402L234.156 79.5587H232.296L227.335 79.704H216.545L213.072 79.8494H211.46L211.212 79.5587H207.863L206.003 79.704L205.011 79.8494L204.391 79.704L204.143 79.5587L204.019 79.8494L203.646 79.704H202.902L202.654 79.8494L201.538 79.704L201.042 79.8494L200.918 79.704L200.546 79.8494V79.5587L199.554 79.704L190.624 79.9948L189.756 79.8494L188.764 79.9948H185.167L183.555 79.8494L182.066 79.9948L181.074 79.8494L174.253 79.704L174.129 80.2855L173.509 80.5763H172.889L172.641 79.9948L166.067 79.8494L161.851 79.9948L161.106 79.5587H160.486L159.99 79.9948L156.146 79.8494H152.425L141.635 79.9948H139.526L138.906 80.1402L137.666 79.9948H133.201L132.953 80.4309L132.581 80.2855L132.457 79.9948L130.969 79.8494L130.845 80.1402L129.977 79.9948H115.714L115.094 79.8494L115.342 78.3956L115.962 75.9243L116.086 75.6335L128.736 75.3427L129.108 75.6335H131.589V75.3427L133.201 75.1974H134.565L134.689 75.4881H149.2V75.9243H149.448V76.215H149.82L149.696 75.4881L151.185 75.3427H152.549L152.797 75.7789L153.541 75.6335L154.161 75.7789L154.657 75.6335L155.277 75.7789L155.401 75.6335H156.518L157.014 75.7789L157.386 75.3427H158.75L159.866 75.6335L160.486 75.3427L160.61 75.1974H161.603L162.099 75.6335L162.595 75.4881H170.036L171.152 75.6335H173.633L173.881 75.3427H177.478L177.726 75.4881H180.95L181.322 75.052L181.818 75.1974V75.4881H185.663L192.236 75.3427H194.469L194.965 75.9243L195.213 75.3427L198.313 75.1974L204.019 75.052L205.135 75.3427L206.127 75.1974L206.499 75.3427L206.623 75.6335L207.119 75.052L211.46 75.1974L211.832 75.3427H219.397L220.514 75.6335V75.3427L223.738 75.1974H227.087L227.459 75.4881L228.575 75.3427L230.56 75.4881V75.1974H231.8L232.172 75.3427H233.04L233.412 75.052L233.66 75.1974H235.024L235.396 74.7612L236.389 69.5277L238.373 58.9152L239.861 50.6288L241.35 42.7784L242.466 37.981L243.334 33.6197L243.83 31.2937L243.582 29.9853L243.334 29.4038L241.846 29.1131L240.854 28.9677H232.668L215.553 29.4038L213.816 29.5492L213.692 29.1131H211.336L211.212 29.6946L210.84 29.5492V29.2585L209.848 29.1131L208.979 29.4038L208.731 29.6946L208.111 29.5492V29.2585H206.623L206.003 29.84L205.631 29.2585H194.221L193.601 28.9677V28.6769L192.98 28.9677L192.36 29.1131L191.492 28.9677L191.244 28.8223V29.1131H190.996V28.8223H190.748L190.624 29.1131L190.128 28.9677H189.136L188.64 29.1131H188.268L188.144 29.4038H187.151L186.779 29.1131V28.8223L185.911 29.2585H184.547L183.555 29.1131L179.71 29.2585H178.718L178.594 29.4038H167.06L166.936 29.2585H165.943L165.819 29.4038H145.976L145.604 28.9677L144.735 29.1131L136.178 29.2585L131.341 29.4038H127L126.504 29.2585V27.8047L127 25.9148L127.124 24.7518L127.248 24.6064H129.356L129.853 24.3157L129.977 24.461L131.589 24.6064L131.837 24.0249ZM237.381 79.5587L237.505 79.8494L237.629 79.5587H237.381Z" fill="#020000"/>
<path d="M50.7256 18.9367V19.3728L48.9893 22.5711L47.9971 24.1703L46.7568 26.3509L45.7647 28.2408L44.4004 30.8576L42.7881 33.7651L40.3076 38.1264L39.0674 40.1617L36.4629 44.8137L35.7188 46.4128L35.2227 46.9943L33.9824 45.686L32.6182 43.9414L31.3779 42.0515L30.8818 40.5978L31.1299 39.144L31.626 38.2718L32.7422 37.3995L33.6104 36.9634L34.3545 36.818L35.9668 37.5449L37.9512 38.7079L38.3232 38.8533L39.1914 37.6903L42.54 31.7298L43.2842 30.4214V29.6946L42.7881 28.9677L40.6797 27.5139L38.8193 26.3509L35.8428 25.1879H32.6182L30.1377 25.7694L28.4014 27.0778L27.0371 28.2408L25.7969 29.6946L24.6807 31.2937L23.8125 32.8928L22.6963 36.3819L22.4482 37.6903V43.0692L22.9443 45.1044L24.1846 48.5935L25.3008 50.7741L26.293 52.3733L27.9053 54.6993L29.0215 56.2984L29.7656 57.3161L29.2695 58.3337L27.2852 61.8227L26.0449 63.858L24.8047 66.0386L23.9365 67.7832L22.4482 70.2546L21.208 72.4352L20.2158 74.3251L17.7354 78.6864L16.123 81.4485L15.0068 83.193L14.2627 84.5014L13.8906 84.7922L13.7666 74.1797L14.0146 73.1621L14.1387 72.5806L13.8906 72.1444L14.0146 71.4176L14.3867 70.8361L13.8906 70.5453V69.2369L14.1387 68.51L14.0146 67.7832L13.7666 67.0563L14.0146 66.184V62.4042L14.2627 61.9681V60.5143L13.8906 60.0782V54.4085L14.0146 51.7918V45.5406L13.8906 37.5449V29.4038L14.2627 28.6769L14.1387 25.4786L13.7666 25.0425V19.5182L13.8906 19.3728L15.627 19.2275H36.0908L43.7803 19.0821H47.1289V19.3728L50.1055 19.2275L50.7256 18.9367Z" fill="#010000"/>
<path d="M93.0175 76.5058L93.7616 76.6512L95.4979 78.2503L96.6141 79.1226L97.6063 79.4133L98.2264 79.7041L99.3427 79.9948L100.211 80.2856L102.195 80.431L103.807 80.5763L104.056 80.8671H104.428L104.552 80.431L108.024 79.9948L111.125 79.1226L111.745 78.3957L112.365 78.2503L112.613 78.5411L112.365 80.5763L110.505 88.8628L108.768 95.5501L108.148 98.7484L107.652 99.3299L107.404 101.947L106.66 105L105.916 107.035L105.048 107.907L104.304 108.343L103.435 109.506L103.311 109.652H101.451L100.211 109.361L99.8387 109.506L99.0946 109.07L98.4745 108.925L94.6298 107.762L94.0096 107.616H93.0175L90.537 107.035L89.9169 106.453L88.9247 106.017L88.8007 105.726V104.563H88.3046L88.4286 105.29V105.726L87.8085 105.436L87.3124 104.273L86.8163 102.819L87.4364 99.766L87.6844 98.1669L88.6766 94.3871L89.6688 90.1712L90.661 85.8099L90.9091 84.7922L91.2811 83.92L92.8934 76.6512L93.0175 76.5058Z" fill="#FF190E"/>
<path d="M152.177 34.6374L153.665 34.7828H155.029L157.138 34.9281L158.75 35.5096L160.238 36.3819L161.354 37.5449L162.099 38.9987L162.347 40.4524L161.975 40.8886V42.9238L160.982 47.7213L159.37 54.8447L158.502 58.3337L158.006 59.6421L157.634 61.2413L156.89 62.695L155.773 64.1488L154.905 65.3118L153.541 66.6202L152.177 67.3471L149.696 68.2193L146.968 68.8008L142.999 68.9462L140.519 68.2193L139.03 67.4924L137.914 66.3294L137.17 64.8757L136.922 63.4219L137.046 60.8051L137.542 58.3337L138.038 56.4438L138.41 54.6993L139.03 52.3733L139.774 48.5935L140.519 45.3952L141.511 42.197L142.379 40.4524L143.247 39.1441L144.611 37.5449L145.852 36.5273L147.092 35.9458L148.952 35.5096L150.192 35.0735L152.177 34.6374ZM150.937 38.9987L150.316 39.2894L149.696 41.0339L148.332 46.4129L147.216 51.2103L145.976 56.2985L144.859 61.532V62.695L145.604 64.2942L146.596 64.8757H147.464L148.456 64.2942L149.2 63.5673L149.448 62.8404L149.944 60.369L150.813 56.88L152.301 49.9019L153.045 46.1221L153.665 45.1045L153.913 42.9238L154.161 42.197L154.037 40.8886L153.293 39.5802L152.425 38.9987H150.937Z" fill="#010000"/>
<path d="M111.373 42.0516L113.854 42.197L115.962 42.6331L118.07 43.6507L119.187 44.8137L119.435 45.2499L119.683 46.2675L120.055 46.9944L119.807 49.175L118.566 55.1354L117.946 58.1883L116.706 63.1311L115.714 67.0563L114.722 69.3823L113.481 71.2722L112.241 72.8714L111.001 73.889L108.521 74.9066L104.18 75.9243H101.699L99.0947 75.4881L97.3584 74.7613L96.2422 73.7436L95.498 72.4352L95.002 70.5453V69.3823L95.6221 65.6025L96.2422 62.4043L96.9863 59.206L97.3584 57.4615L98.5986 53.1002L99.2188 51.3557L99.4668 50.1926L100.211 48.1574L101.451 46.2675L103.56 44.3776L105.544 43.2146L107.156 42.6331L109.389 42.3423L111.373 42.0516ZM109.761 46.1221L108.893 46.7036L108.024 47.8666L107.28 50.4834L105.42 58.6245L104.552 62.1135L103.436 67.0563L103.188 68.3647V70.1092L103.684 70.9815L104.304 71.4176L104.8 71.563H105.668L106.412 70.8361L107.156 69.0916L108.024 65.3118L108.769 62.4043L109.017 60.6597L109.513 59.206L110.753 53.9724L111.621 50.4834L111.745 49.6111V48.4481L111.373 47.2851L110.629 46.2675L109.761 46.1221Z" fill="#FF190E"/>
<path d="M201.662 34.9282H206.127L208.483 35.655L209.724 36.3819L210.84 37.5449L211.46 38.7079L211.584 39.1441V41.6155L210.468 47.7213L208.359 57.0254L207.615 59.9329L206.623 62.2589L205.755 63.8581L205.259 64.5849L204.267 65.6026L202.902 66.6202L201.166 67.6378L199.058 68.3647L197.693 68.6555L194.717 68.8008H192.236L190.996 68.5101L189.508 67.7832L187.896 66.4748L187.027 65.3118L186.779 64.5849L186.655 63.2765V61.9682L187.027 60.2236L188.144 55.1355L188.888 51.6464L189.632 48.012L190.996 42.9239L191.864 40.8886L192.732 39.5802L194.221 37.8357L196.329 36.3819L197.941 35.655L199.678 35.3643L200.794 35.2189L201.662 34.9282ZM201.166 38.8533L200.422 39.2895L199.678 40.3071L199.058 41.9062L198.189 45.686L197.321 49.175L196.453 53.2456L195.337 57.7522L194.593 60.9505V62.4043L195.337 64.1488L195.957 64.7303L196.949 65.1664L198.189 64.7303L198.81 63.8581L199.554 60.8052L200.67 55.5716L201.786 50.6288L202.53 47.7213L203.398 43.2146L203.522 41.6155L203.646 41.034L203.274 40.0163L202.654 39.1441L202.282 38.8533H201.166Z" fill="black"/>
<path d="M230.683 36.5272H232.296L233.536 36.9634L234.652 37.6902L235.148 38.4171L235.272 38.7079V41.47L234.156 46.7036L233.536 49.0296L232.668 53.3909L231.676 57.8975L230.311 64.0033L229.815 66.3294L229.567 67.7831L229.443 67.9285L227.583 68.0739H221.506L222.002 65.3117L222.374 63.5672L222.746 61.5319L223.118 59.3513L223.614 57.0253L224.482 53.6816L225.474 49.0296L226.095 45.9767L226.591 43.796V42.633L226.219 41.7608L225.599 41.0339L224.482 40.7431L224.234 41.47L223.242 44.2322L222.622 46.5582L222.126 49.0296L220.266 57.4614L218.529 65.4571L217.909 67.9285L217.785 68.0739L216.669 67.9285L216.173 68.2193H214.932L214.064 67.9285L213.94 68.0739H212.452H211.956L209.724 67.9285L210.592 64.4395L211.708 59.0606L212.08 56.7345L212.576 54.8446L213.444 50.4833L213.94 48.8842L214.312 46.8489L215.553 41.9061L216.049 39.4347L216.545 38.1264L216.917 36.9634L224.978 37.1087L225.226 38.4171L225.723 38.8532H226.343L227.211 37.6902L228.575 36.9634L229.443 36.6726L230.683 36.5272Z" fill="#010000"/>
<path d="M176.981 34.6374H179.834L181.818 34.9281L183.679 35.3643L185.663 36.9634L186.531 37.8357L187.027 38.9987L187.151 40.8886V42.3423L186.655 45.1045L185.911 48.1574L185.539 49.0296L184.671 49.4658H183.803L182.563 49.0296L181.942 49.4658H180.826L180.33 49.175L179.71 49.3204L179.586 49.4658L178.222 49.3204L177.602 49.0296L177.478 48.7389V46.7036L178.098 45.1045V43.5053L178.47 42.4877L178.594 42.3423V41.3247L177.974 40.0163L177.478 39.5802H176.609L175.741 40.0163L175.121 40.8886L174.501 42.9238L174.005 45.3952L172.269 52.6641L170.284 61.9681L170.408 62.8404L170.904 63.7127L171.4 64.1488L172.145 64.2942L173.261 63.5673L173.881 62.4043L174.997 58.043L175.617 56.0077L175.741 55.8623L179.214 55.717H183.431L184.051 55.8623L183.927 57.0253L183.183 59.6421L182.563 61.532L182.19 62.5496L181.322 64.0034L180.206 65.4572L178.222 66.9109L176.361 67.7832L175.245 68.0739H174.749L174.625 68.5101L174.129 68.6555L172.145 68.8008H167.308L166.315 68.5101L165.075 68.3647L164.703 68.0739V67.7832L163.587 67.4924L162.595 66.4748L162.099 65.6026L161.727 63.858L161.851 60.9505L162.595 56.5892L163.587 51.9372L164.207 49.175L164.703 46.849L165.943 42.6331L166.936 40.5978L168.3 38.8533L169.416 37.6903L171.772 36.2365L173.013 35.5096L175.121 34.9281L176.733 34.7828L176.981 34.6374Z" fill="#010000"/>
<path d="M83.0957 34.6374H88.6768L89.2969 34.9281L91.0332 35.0735L92.5215 35.9458L93.6377 36.9634L94.1338 37.8357L94.2578 40.3071L93.7617 43.2146L93.1416 44.523L92.5215 44.8137L90.7852 44.6684L90.041 44.3776L89.0488 44.523H87.5605L86.6924 44.6684L86.1963 44.9591L85.5762 44.8137V42.3423L86.0723 41.3247L85.8242 40.5978L84.9561 39.7256L83.8398 39.5802L82.9717 40.1617L82.4756 40.8886L81.8555 43.36L81.9795 44.523L82.4756 45.686L83.0957 46.5582L84.708 47.8666L87.1885 49.4658L88.8008 50.7742L89.4209 51.6464L90.4131 52.6641L90.9092 53.3909L91.0332 53.6817V56.4438L91.1572 57.3161L90.4131 60.9505L89.917 62.695L89.0488 64.2942L88.1807 65.4572L86.9404 66.4748L85.7002 67.3471L84.46 68.0739L79.375 69.3823L78.7549 69.237L78.2588 68.9462L77.5146 69.0916L77.2666 69.3823H76.3984L75.5303 69.0916L74.166 68.8008L71.6855 67.7832L70.6934 66.9109L69.9492 65.7479L69.7012 64.8757V62.2589L69.9492 60.9505L70.1973 59.0606L70.5693 58.3337L70.8174 57.0253H73.0498L74.042 57.1707L74.29 57.0253H78.5068L78.8789 57.1707L78.7549 57.7522L78.5068 58.1884L78.1348 60.6598L77.6387 62.1135L77.7627 62.9858L78.6309 63.858L79.9951 64.0034L81.1113 63.5673L81.9795 61.8228V60.5144L82.3516 59.4967V58.1884L81.8555 57.0253L80.9873 56.1531L77.8867 53.8271L76.2744 52.3733L74.9102 51.2103L73.7939 49.9019L73.2979 48.7389L73.1738 47.7213V45.9767L73.7939 42.3423L75.0342 39.4348L75.5303 38.7079L76.8945 37.3995L77.8867 36.5273L80.1191 35.5096L81.4834 34.7828L83.0957 34.6374Z" fill="#010000"/>
<path d="M109.761 8.03351H112.241L113.481 8.46964L113.978 9.05114L113.109 9.77802L113.605 9.63265L113.978 9.19652H114.846L116.582 9.9234L117.202 9.63265L118.566 9.48727H120.303L121.171 9.9234L121.667 10.6503L121.915 11.2318L122.163 12.9763L122.659 13.7032L123.899 14.7208L125.264 15.3023L126.008 16.0292L125.76 16.7561L124.644 17.7737H123.775L122.907 17.1922L122.039 16.9015L121.171 17.0468L120.923 17.7737L121.047 19.0821L121.667 19.9544L123.527 21.1174L125.512 22.2804V24.3157L124.271 30.7122L123.155 35.2189L122.039 40.1617L121.543 41.4701L120.675 40.5978L119.435 39.2894L117.822 38.4172L116.582 37.981L114.474 37.3995L113.605 37.2542H110.877L108.272 37.5449L106.164 38.1264L103.312 39.2894L102.071 40.1617H101.823L102.071 38.5625L102.815 35.3643L103.312 33.0382L103.932 31.4391L104.552 28.3862L105.048 26.4963L106.412 20.5359L107.156 18.0645L107.528 17.3376L108.272 16.9015L113.481 16.7561L114.226 14.4301L114.35 14.1393V13.2671L113.854 12.3948L113.109 11.6679L111.869 11.0864L109.885 10.5049L108.272 10.0688L108.148 9.77802L108.769 8.61501L109.389 8.17888L109.761 8.03351Z" fill="#FF190E"/>
<path d="M35.3467 48.8842L35.8428 49.0296L37.9512 51.3556L39.5635 53.1001L42.416 56.4438L44.0283 58.9152L45.5166 61.6773L46.3848 63.858L46.7568 65.6025L47.1289 66.0386L47.2529 68.51V72.8713L47.0049 74.3251L46.8809 75.4881L46.1367 77.9595L45.1445 80.2855L44.0283 81.8846L42.168 84.0653L40.4316 85.3737L38.6953 86.3913L36.0908 86.8274L35.4707 87.1182H33.6104L31.2539 86.8274L29.7656 86.3913L27.6572 85.2283L25.5488 83.4838L24.1846 81.8846L23.6885 81.0124L22.8203 79.704L23.5645 77.9595L24.9287 75.3427L26.0449 73.0167L26.417 72.2898L26.7891 71.1268L27.4092 70.2545H27.7812L28.4014 71.9991L29.5176 73.5982L30.3857 74.6158L31.3779 75.6335L32.8662 76.5057L33.9824 76.6511L34.6025 76.7965L36.2148 76.6511L37.3311 76.0696L38.3232 75.052L39.0674 74.0343L39.5635 72.7259L40.0596 71.5629L39.9355 70.836L39.6875 70.2545L39.5635 68.9462L38.5713 66.9109L37.7031 65.4571L36.959 64.1487L35.9668 63.1311L32.6182 59.2059L31.626 58.1883L30.7578 57.0253L31.0059 56.153L31.75 54.6993L32.7422 53.5363L34.1064 51.2102L34.8506 49.4657L35.3467 48.8842Z" fill="#010000"/>
<path d="M128.488 34.9282L129.108 35.0735L129.977 35.3643L137.79 35.5097H138.038L138.41 35.3643H140.022L139.898 36.5273L138.906 40.4525L138.658 41.034L138.41 41.1793H133.821L132.209 41.034L131.961 42.3424L131.341 45.686L131.217 46.7036V48.4482L131.837 48.5935H133.325L134.317 48.4482H135.434L136.054 48.5935V49.9019L135.806 51.3557L135.31 53.391L135.062 53.8271L134.689 53.9725L129.977 54.1178L129.48 54.4086L128.86 56.1531L127.992 60.2236L126.876 64.4396L126.504 66.7656L126.008 67.9286L125.264 68.3647L119.435 68.5101H117.45L117.822 66.911L119.187 61.532L120.055 57.4615L120.923 53.8271L122.039 48.5935L123.031 44.6684L124.147 39.5802L124.644 38.5626L124.768 37.6903H124.52V36.9634L125.016 35.655L127.62 35.5097L127.744 35.0735L128.488 34.9282Z" fill="#010000"/>
<path d="M184.547 79.9948H184.795L184.671 80.2856L184.547 79.9948Z" fill="#550804"/>
</svg>
