<svg width="137" height="32" viewBox="0 0 137 32" fill="none" xmlns="http://www.w3.org/2000/svg">
<path d="M26.5349 14.4903L26.5679 0.683105L15.9233 10.1376L15.8792 20.5068L10.2374 15.1955L7.36133 17.752L7.38337 31.6142L18.2925 21.8622L18.3476 11.2286L24.0445 16.7272L26.5349 14.4903Z" fill="#0F050E"/>
<path d="M27.2064 0.0439453L27.1624 20.6169L18.975 12.7161L18.9199 24.9145L27.2285 31.9668L34.0163 25.4434L34.0825 7.2175L27.2064 0.0439453Z" fill="#6E9DD2"/>
<path d="M6.73278 11.1295L12.5069 16.4628L15.2507 19.0413L15.2948 6.88705L6.87603 0L0 6.55647V24.551L6.75482 32L6.73278 22.4132V11.1295Z" fill="#AE39A3"/>
<path d="M57.757 7.68604V19.1461L57.779 24.4684L54.914 21.2067L47.4429 12.5455V21.2067H44.082V10.1103L47.1674 7.68604L54.3851 15.9505V7.68604H57.757Z" fill="#0F050E"/>
<path fill-rule="evenodd" clip-rule="evenodd" d="M67.9604 7.53174C70.2671 7.53174 72.1331 8.22595 73.5582 9.61438C74.9834 11.0102 75.696 12.63 75.696 14.4739C75.696 16.3472 74.976 17.9707 73.5362 19.3444C72.089 20.7181 70.2304 21.405 67.9604 21.405C65.6758 21.405 63.8135 20.7218 62.3736 19.3554C60.9338 17.9817 60.2139 16.3545 60.2139 14.4739C60.2139 12.6226 60.9265 11.0028 62.3516 9.61438C63.7841 8.22595 65.6537 7.53174 67.9604 7.53174ZM67.9604 18.5951C69.2387 18.5951 70.2708 18.2168 71.0568 17.4601C71.8355 16.7035 72.2249 15.708 72.2249 14.4739C72.2249 13.2324 71.8355 12.2333 71.0568 11.4766C70.2708 10.7273 69.2387 10.3527 67.9604 10.3527C66.6822 10.3527 65.65 10.7273 64.864 11.4766C64.078 12.2333 63.6849 13.2324 63.6849 14.4739C63.6849 15.708 64.078 16.7035 64.864 17.4601C65.65 18.2168 66.6822 18.5951 67.9604 18.5951Z" fill="#0F050E"/>
<path d="M89.6027 7.70801L83.3548 21.405H81.8892L75.3438 7.70801H79.0132L82.5944 15.4325L85.9774 7.70801H89.6027Z" fill="#0F050E"/>
<path d="M101.118 18.7493V21.2287H91.1562V7.70801H100.985V10.1873H94.5171V13.0193H100.688V15.4986H94.5171V18.7493H101.118Z" fill="#0F050E"/>
<path d="M117.624 7.70801L112.334 14.2204L118.208 21.2287H113.833L110.175 16.7659L106.571 21.2287H102.263L108.004 14.2204L102.582 7.70801H106.957L110.175 11.697L113.348 7.70801H117.624Z" fill="#0F050E"/>
<path d="M123.299 7.70801V21.2287H119.927V7.70801H123.299Z" fill="#0F050E"/>
<path d="M135.597 8.57845V11.2231C133.804 10.415 132.375 10.011 131.31 10.011C130.7 10.011 130.215 10.1101 129.855 10.3085C129.503 10.5142 129.327 10.786 129.327 11.1239C129.327 11.381 129.455 11.6271 129.712 11.8622C129.969 12.0899 130.597 12.3874 131.597 12.7548C132.596 13.1221 133.396 13.4637 133.999 13.7796C134.601 14.0954 135.119 14.5436 135.552 15.1239C135.986 15.6969 136.203 16.4205 136.203 17.2947C136.203 18.5509 135.729 19.55 134.781 20.2919C133.826 21.0339 132.57 21.4049 131.012 21.4049C129.338 21.4049 127.714 20.9678 126.142 20.0936V17.1845C127.046 17.7869 127.843 18.2277 128.533 18.5068C129.231 18.786 129.973 18.9256 130.759 18.9256C132.081 18.9256 132.743 18.5105 132.743 17.6804C132.743 17.3939 132.61 17.1257 132.346 16.876C132.081 16.6262 131.442 16.3177 130.428 15.9504C129.422 15.5904 128.621 15.2561 128.026 14.9476C127.439 14.6391 126.928 14.1983 126.495 13.6253C126.069 13.0449 125.855 12.3066 125.855 11.4104C125.855 10.2497 126.322 9.31307 127.255 8.60049C128.195 7.88791 129.448 7.53162 131.012 7.53162C132.46 7.53162 133.988 7.88056 135.597 8.57845Z" fill="#0F050E"/>
<path d="M107.023 7.76294L110.175 11.7299L112.324 14.2313L110.175 16.7547L106.539 21.1844H102.208L108.026 14.2313L102.781 7.76294H107.023Z" fill="#0F050E"/>
</svg>
