<svg width="727" height="411" viewBox="0 0 727 411" fill="none" xmlns="http://www.w3.org/2000/svg">
<g clip-path="url(#clip0_963_1270)">
<rect y="0.595947" width="727" height="471" rx="10" fill="#AE39A3"/>
<g filter="url(#filter0_d_963_1270)">
<g clip-path="url(#clip1_963_1270)">
<path d="M228.427 36.9566C228.427 27.5479 236.054 19.9207 245.463 19.9207H637.29C646.698 19.9207 654.326 27.5479 654.326 36.9566V397.906C654.326 407.315 646.698 414.942 637.29 414.942H245.463C236.054 414.942 228.427 407.315 228.427 397.906V36.9566Z" fill="#F8F8F8"/>
<path d="M253.866 55.4359H256.351L260.188 66.4889C260.257 66.6969 260.316 66.891 260.365 67.0712C260.42 67.2445 260.476 67.4282 260.531 67.6223H260.614C260.663 67.4282 260.715 67.241 260.77 67.0608C260.826 66.8806 260.888 66.69 260.958 66.4889L264.846 55.4359H267.144L261.675 70.6585H259.346L253.866 55.4359ZM267.415 65.3764V65.0436C267.415 63.4146 267.876 62.0941 268.798 61.082C269.72 60.0699 270.926 59.5639 272.416 59.5639C273.913 59.5639 275.071 60.0388 275.889 60.9884C276.707 61.9312 277.116 63.224 277.116 64.8669V65.7195H268.829V64.1286H274.87V63.9102C274.877 63.1893 274.676 62.5758 274.267 62.0698C273.858 61.5638 273.258 61.3108 272.468 61.3108C271.539 61.3108 270.843 61.6574 270.378 62.3506C269.921 63.0368 269.692 63.9137 269.692 64.9812V65.4283C269.692 66.4959 269.938 67.3762 270.43 68.0694C270.922 68.7626 271.667 69.1092 272.666 69.1092C273.317 69.1092 273.875 68.9671 274.34 68.6829C274.804 68.3918 275.178 68.0452 275.463 67.6431L277.012 68.7141C276.672 69.2825 276.132 69.7851 275.39 70.2218C274.655 70.6585 273.754 70.8769 272.686 70.8769C271.009 70.8769 269.709 70.3708 268.787 69.3588C267.872 68.3398 267.415 67.0123 267.415 65.3764ZM279.248 70.5753V59.8655H281.348L281.41 61.2172H281.462C281.809 60.7319 282.263 60.3507 282.824 60.0734C283.393 59.7892 284.02 59.6471 284.706 59.6471C285.788 59.6471 286.654 59.9556 287.306 60.5725C287.964 61.1825 288.294 62.2223 288.294 63.6919V70.5753H286.037V63.7023C286.037 62.8982 285.861 62.3263 285.507 61.9866C285.154 61.64 284.651 61.4667 283.999 61.4667C283.445 61.4667 282.949 61.6192 282.512 61.9242C282.076 62.2292 281.74 62.6348 281.504 63.1408V70.5753H279.248ZM289.614 61.5603V59.8655H295.926V61.5603H289.614ZM291.424 67.7055V60.7597L291.434 60.4789V57.058H293.669V67.6431C293.669 68.1699 293.767 68.5373 293.961 68.7453C294.155 68.9463 294.449 69.0468 294.844 69.0468C295.025 69.0468 295.201 69.0295 295.375 68.9948C295.548 68.9532 295.721 68.8978 295.895 68.8285V70.5753C295.728 70.6516 295.5 70.7174 295.208 70.7729C294.924 70.8353 294.609 70.8665 294.262 70.8665C293.396 70.8665 292.706 70.6169 292.193 70.1178C291.68 69.6118 291.424 68.8077 291.424 67.7055ZM297.215 67.4351C297.215 66.326 297.652 65.4699 298.525 64.8669C299.399 64.2568 300.515 63.9518 301.873 63.9518H304.223V63.2136C304.223 62.6174 304.067 62.1391 303.755 61.7787C303.45 61.4113 302.924 61.2276 302.175 61.2276C301.419 61.2276 300.875 61.3801 300.543 61.6851C300.217 61.9901 300.054 62.3575 300.054 62.7873V62.9016H297.829V62.7665C297.829 61.8861 298.231 61.134 299.035 60.5101C299.839 59.8793 300.91 59.5639 302.248 59.5639C303.593 59.5639 304.632 59.8655 305.367 60.4685C306.109 61.0716 306.48 61.9936 306.48 63.2344V68.111C306.48 68.5547 306.514 68.9775 306.584 69.3796C306.66 69.7747 306.764 70.1178 306.896 70.409V70.5753H304.702C304.605 70.402 304.518 70.1837 304.442 69.9202C304.372 69.6499 304.324 69.3796 304.296 69.1092C304.06 69.539 303.655 69.9237 303.08 70.2634C302.504 70.603 301.769 70.7729 300.875 70.7729C299.835 70.7729 298.965 70.4887 298.265 69.9202C297.565 69.3518 297.215 68.5235 297.215 67.4351ZM299.472 67.2792C299.472 67.8545 299.638 68.3051 299.971 68.6309C300.303 68.9498 300.816 69.1092 301.51 69.1092C302.217 69.1092 302.844 68.8701 303.392 68.3918C303.946 67.9065 304.223 67.3762 304.223 66.8009V65.4387H302.196C301.288 65.4387 300.605 65.6016 300.147 65.9274C299.697 66.2532 299.472 66.7038 299.472 67.2792ZM308.663 67.3208L310.878 67.3312V67.4455C310.878 68.0348 311.086 68.4715 311.502 68.7557C311.925 69.0399 312.483 69.182 313.176 69.182C313.876 69.182 314.42 69.0468 314.808 68.7765C315.204 68.5061 315.401 68.1457 315.401 67.6951C315.401 67.2445 315.228 66.9048 314.881 66.6761C314.535 66.4404 313.789 66.1943 312.646 65.9378C311.446 65.6606 310.528 65.2724 309.89 64.7733C309.259 64.2672 308.944 63.574 308.944 62.6937C308.944 61.7648 309.322 61.0127 310.077 60.4373C310.833 59.8551 311.852 59.5639 313.134 59.5639C314.41 59.5639 315.432 59.8585 316.202 60.4477C316.978 61.03 317.366 61.8307 317.366 62.8497V62.9536H315.162V62.8185C315.162 62.3194 314.992 61.9346 314.652 61.6643C314.32 61.3939 313.81 61.2588 313.124 61.2588C312.445 61.2588 311.946 61.3801 311.627 61.6227C311.315 61.8584 311.159 62.1738 311.159 62.5689C311.159 62.9502 311.342 63.2517 311.71 63.4735C312.084 63.6954 312.843 63.938 313.987 64.2014C315.179 64.4717 316.084 64.8634 316.701 65.3764C317.318 65.8824 317.626 66.6033 317.626 67.5391C317.626 68.5443 317.252 69.3518 316.503 69.9618C315.762 70.5719 314.656 70.8769 313.186 70.8769C311.724 70.8769 310.604 70.5684 309.828 69.9514C309.058 69.3345 308.67 68.4923 308.663 67.4247V67.3208ZM320.153 69.4315C320.153 69.0572 320.274 68.7349 320.517 68.4645C320.766 68.1942 321.123 68.059 321.588 68.059C322.052 68.059 322.406 68.1942 322.648 68.4645C322.898 68.7349 323.023 69.0572 323.023 69.4315C323.023 69.8059 322.898 70.1282 322.648 70.3986C322.406 70.6689 322.052 70.8041 321.588 70.8041C321.123 70.8041 320.766 70.6689 320.517 70.3986C320.274 70.1282 320.153 69.8059 320.153 69.4315ZM320.153 60.978C320.153 60.6037 320.274 60.2848 320.517 60.0214C320.766 59.7511 321.123 59.6159 321.588 59.6159C322.052 59.6159 322.406 59.7511 322.648 60.0214C322.898 60.2848 323.023 60.6037 323.023 60.978C323.023 61.3524 322.898 61.6747 322.648 61.945C322.406 62.2085 322.052 62.3402 321.588 62.3402C321.123 62.3402 320.766 62.2085 320.517 61.945C320.274 61.6747 320.153 61.3524 320.153 60.978ZM329.677 70.5753L335.251 55.3528H337.58L343.174 70.5753H340.741L336.758 59.2728C336.675 59.0371 336.603 58.8118 336.54 58.5969C336.485 58.382 336.433 58.1637 336.384 57.9418H336.301C336.252 58.1637 336.197 58.382 336.135 58.5969C336.079 58.8118 336.01 59.0371 335.927 59.2728L331.944 70.5753H329.677ZM332.319 66.8009L332.922 64.9916H339.836L340.439 66.8009H332.319ZM344.505 70.5753V59.8655H346.605L346.668 61.2172H346.72C347.066 60.7319 347.52 60.3507 348.082 60.0734C348.65 59.7892 349.278 59.6471 349.964 59.6471C351.045 59.6471 351.912 59.9556 352.563 60.5725C353.222 61.1825 353.551 62.2223 353.551 63.6919V70.5753H351.295V63.7023C351.295 62.8982 351.118 62.3263 350.764 61.9866C350.411 61.64 349.908 61.4667 349.257 61.4667C348.702 61.4667 348.207 61.6192 347.77 61.9242C347.333 62.2292 346.997 62.6348 346.761 63.1408V70.5753H344.505ZM356.171 66.6969V59.8655H358.428V66.7073C358.428 67.5322 358.608 68.1179 358.968 68.4645C359.329 68.8042 359.831 68.974 360.476 68.974C361.038 68.974 361.533 68.8181 361.963 68.5061C362.393 68.1873 362.726 67.7852 362.961 67.3V59.8655H365.218V70.5753H363.117L363.055 69.2236H363.003C362.642 69.7088 362.181 70.0901 361.62 70.3674C361.058 70.6446 360.431 70.7833 359.738 70.7833C358.663 70.7833 357.8 70.4713 357.149 69.8475C356.497 69.2167 356.171 68.1665 356.171 66.6969ZM367.464 67.4351C367.464 66.326 367.9 65.4699 368.774 64.8669C369.647 64.2568 370.763 63.9518 372.122 63.9518H374.472V63.2136C374.472 62.6174 374.316 62.1391 374.004 61.7787C373.699 61.4113 373.172 61.2276 372.423 61.2276C371.668 61.2276 371.124 61.3801 370.791 61.6851C370.465 61.9901 370.302 62.3575 370.302 62.7873V62.9016H368.077V62.7665C368.077 61.8861 368.479 61.134 369.283 60.5101C370.087 59.8793 371.158 59.5639 372.496 59.5639C373.841 59.5639 374.881 59.8655 375.616 60.4685C376.357 61.0716 376.728 61.9936 376.728 63.2344V68.111C376.728 68.5547 376.763 68.9775 376.832 69.3796C376.908 69.7747 377.012 70.1178 377.144 70.409V70.5753H374.95C374.853 70.402 374.766 70.1837 374.69 69.9202C374.621 69.6499 374.572 69.3796 374.545 69.1092C374.309 69.539 373.903 69.9237 373.328 70.2634C372.753 70.603 372.018 70.7729 371.124 70.7729C370.084 70.7729 369.214 70.4887 368.514 69.9202C367.814 69.3518 367.464 68.5235 367.464 67.4351ZM369.72 67.2792C369.72 67.8545 369.886 68.3051 370.219 68.6309C370.552 68.9498 371.065 69.1092 371.758 69.1092C372.465 69.1092 373.092 68.8701 373.64 68.3918C374.194 67.9065 374.472 67.3762 374.472 66.8009V65.4387H372.444C371.536 65.4387 370.853 65.6016 370.396 65.9274C369.945 66.2532 369.72 66.7038 369.72 67.2792ZM379.598 70.5753V54.7497H381.865V70.5753H379.598ZM387.313 71.8751L393.406 55.4359H395.444L389.351 71.8751H387.313ZM401.101 70.5753V55.4359H406.279C407.936 55.4359 409.204 55.8588 410.085 56.7045C410.965 57.5502 411.405 58.6905 411.405 60.1254C411.405 61.5603 410.965 62.7076 410.085 63.5671C409.204 64.4197 407.932 64.8461 406.269 64.8461H403.43V70.5753H401.101ZM403.43 63.016H406.144C407.232 63.016 407.991 62.7422 408.421 62.1946C408.858 61.647 409.076 60.9607 409.076 60.1358C409.076 59.304 408.858 58.6212 408.421 58.0874C407.991 57.5467 407.232 57.2764 406.144 57.2764H403.43V63.016ZM413.318 70.5753V59.8655H415.429L415.492 61.1964H415.544C415.807 60.7527 416.154 60.3715 416.583 60.0526C417.013 59.7337 417.519 59.5743 418.101 59.5743C418.247 59.5743 418.4 59.5916 418.559 59.6263C418.725 59.654 418.843 59.6818 418.912 59.7095V61.7059C418.781 61.6782 418.639 61.6574 418.486 61.6435C418.341 61.6296 418.178 61.6227 417.997 61.6227C417.436 61.6227 416.944 61.7787 416.521 62.0906C416.105 62.3956 415.793 62.7873 415.585 63.2656V70.5753H413.318ZM419.765 65.3764V65.0436C419.765 63.4077 420.24 62.0871 421.19 61.082C422.146 60.0699 423.408 59.5639 424.974 59.5639C426.548 59.5639 427.81 60.0699 428.759 61.082C429.709 62.0871 430.184 63.4077 430.184 65.0436V65.3764C430.184 67.0192 429.709 68.3467 428.759 69.3588C427.81 70.3708 426.548 70.8769 424.974 70.8769C423.401 70.8769 422.139 70.3708 421.19 69.3588C420.24 68.3467 419.765 67.0192 419.765 65.3764ZM422.073 64.9916V65.4387C422.073 66.5063 422.32 67.3832 422.812 68.0694C423.304 68.7487 424.025 69.0884 424.974 69.0884C425.924 69.0884 426.645 68.7487 427.137 68.0694C427.629 67.3832 427.876 66.5028 427.876 65.4283V64.9916C427.876 63.9241 427.629 63.0507 427.137 62.3714C426.645 61.6851 425.924 61.342 424.974 61.342C424.025 61.342 423.304 61.6851 422.812 62.3714C422.32 63.0507 422.073 63.9241 422.073 64.9916ZM431.764 65.3868V65.054C431.764 63.4805 432.177 62.1877 433.002 61.1756C433.827 60.1635 434.922 59.6575 436.287 59.6575C437.022 59.6575 437.65 59.7892 438.169 60.0526C438.689 60.3091 439.098 60.6488 439.396 61.0716V54.7497H441.642V70.5753H439.552L439.49 69.2028H439.438C439.175 69.6464 438.766 70.0208 438.211 70.3258C437.663 70.6308 437.022 70.7833 436.287 70.7833C434.901 70.7833 433.799 70.2772 432.981 69.2652C432.17 68.2462 431.764 66.9534 431.764 65.3868ZM434.062 65.4179C434.062 66.4508 434.288 67.3069 434.738 67.9862C435.189 68.6656 435.882 69.0052 436.818 69.0052C437.449 69.0052 437.986 68.8319 438.429 68.4853C438.873 68.1387 439.195 67.7401 439.396 67.2896V63.1304C439.195 62.6729 438.877 62.2743 438.44 61.9346C438.003 61.595 437.462 61.4251 436.818 61.4251C435.882 61.4251 435.189 61.7648 434.738 62.4441C434.288 63.1235 434.062 63.9796 434.062 65.0124V65.4179ZM444.367 66.6969V59.8655H446.623V66.7073C446.623 67.5322 446.803 68.1179 447.164 68.4645C447.524 68.8042 448.027 68.974 448.671 68.974C449.233 68.974 449.728 68.8181 450.158 68.5061C450.588 68.1873 450.921 67.7852 451.156 67.3V59.8655H453.413V70.5753H451.312L451.25 69.2236H451.198C450.838 69.7088 450.377 70.0901 449.815 70.3674C449.254 70.6446 448.626 70.7833 447.933 70.7833C446.859 70.7833 445.996 70.4713 445.344 69.8475C444.692 69.2167 444.367 68.1665 444.367 66.6969ZM455.617 65.3764V65.0436C455.617 63.4007 456.075 62.0767 456.99 61.0716C457.905 60.0665 459.146 59.5639 460.712 59.5639C462.189 59.5639 463.312 59.9452 464.081 60.7077C464.851 61.4702 465.246 62.3644 465.266 63.3904V63.5047H463.072V63.4111C463.072 62.8358 462.882 62.3471 462.501 61.945C462.119 61.5361 461.527 61.3316 460.723 61.3316C459.78 61.3316 459.076 61.6747 458.612 62.361C458.154 63.0403 457.926 63.9172 457.926 64.9916V65.4387C457.926 66.4993 458.154 67.3762 458.612 68.0694C459.069 68.7626 459.769 69.1092 460.712 69.1092C461.537 69.1092 462.137 68.9047 462.511 68.4957C462.885 68.0798 463.076 67.5842 463.083 67.0088V66.9256H465.266V67.0192C465.266 68.0382 464.875 68.9359 464.091 69.7123C463.315 70.4887 462.192 70.8769 460.723 70.8769C459.149 70.8769 457.905 70.3743 456.99 69.3692C456.075 68.3571 455.617 67.0262 455.617 65.3764ZM465.901 61.5603V59.8655H472.212V61.5603H465.901ZM467.71 67.7055V60.7597L467.72 60.4789V57.058H469.956V67.6431C469.956 68.1699 470.053 68.5373 470.247 68.7453C470.441 68.9463 470.736 69.0468 471.131 69.0468C471.311 69.0468 471.488 69.0295 471.661 68.9948C471.834 68.9532 472.008 68.8978 472.181 68.8285V70.5753C472.015 70.6516 471.786 70.7174 471.495 70.7729C471.211 70.8353 470.895 70.8665 470.549 70.8665C469.682 70.8665 468.992 70.6169 468.479 70.1178C467.966 69.6118 467.71 68.8077 467.71 67.7055ZM473.252 65.3764V65.0436C473.252 63.4077 473.727 62.0871 474.677 61.082C475.633 60.0699 476.895 59.5639 478.461 59.5639C480.035 59.5639 481.297 60.0699 482.246 61.082C483.196 62.0871 483.671 63.4077 483.671 65.0436V65.3764C483.671 67.0192 483.196 68.3467 482.246 69.3588C481.297 70.3708 480.035 70.8769 478.461 70.8769C476.888 70.8769 475.626 70.3708 474.677 69.3588C473.727 68.3467 473.252 67.0192 473.252 65.3764ZM475.56 64.9916V65.4387C475.56 66.5063 475.806 67.3832 476.299 68.0694C476.791 68.7487 477.512 69.0884 478.461 69.0884C479.411 69.0884 480.132 68.7487 480.624 68.0694C481.116 67.3832 481.362 66.5028 481.362 65.4283V64.9916C481.362 63.9241 481.116 63.0507 480.624 62.3714C480.132 61.6851 479.411 61.342 478.461 61.342C477.512 61.342 476.791 61.6851 476.299 62.3714C475.806 63.0507 475.56 63.9241 475.56 64.9916ZM485.241 67.3208L487.456 67.3312V67.4455C487.456 68.0348 487.664 68.4715 488.079 68.7557C488.502 69.0399 489.06 69.182 489.754 69.182C490.454 69.182 490.998 69.0468 491.386 68.7765C491.781 68.5061 491.979 68.1457 491.979 67.6951C491.979 67.2445 491.805 66.9048 491.459 66.6761C491.112 66.4404 490.367 66.1943 489.223 65.9378C488.024 65.6606 487.106 65.2724 486.468 64.7733C485.837 64.2672 485.522 63.574 485.522 62.6937C485.522 61.7648 485.899 61.0127 486.655 60.4373C487.411 59.8551 488.43 59.5639 489.712 59.5639C490.987 59.5639 492.01 59.8585 492.779 60.4477C493.556 61.03 493.944 61.8307 493.944 62.8497V62.9536H491.74V62.8185C491.74 62.3194 491.57 61.9346 491.23 61.6643C490.897 61.3939 490.388 61.2588 489.702 61.2588C489.022 61.2588 488.523 61.3801 488.204 61.6227C487.892 61.8584 487.736 62.1738 487.736 62.5689C487.736 62.9502 487.92 63.2517 488.287 63.4735C488.662 63.6954 489.421 63.938 490.565 64.2014C491.757 64.4717 492.662 64.8634 493.278 65.3764C493.895 65.8824 494.204 66.6033 494.204 67.5391C494.204 68.5443 493.83 69.3518 493.081 69.9618C492.339 70.5719 491.234 70.8769 489.764 70.8769C488.301 70.8769 487.182 70.5684 486.405 69.9514C485.636 69.3345 485.248 68.4923 485.241 67.4247V67.3208Z" fill="#201E1E"/>
<rect x="537.067" y="46.007" width="91.1726" height="35.1367" rx="7.98561" fill="#F8F8F8"/>
<rect x="537.067" y="46.007" width="91.1726" height="35.1367" rx="7.98561" stroke="#9F9F9F" stroke-width="1.06475"/>
<g clip-path="url(#clip2_963_1270)">
<path d="M547.872 70.6401V69.2176L552.065 64.5511C552.564 64.002 552.949 63.5085 553.221 63.0704C553.498 62.6323 553.637 62.1692 553.637 61.6812C553.637 61.2099 553.49 60.8133 553.196 60.4917C552.908 60.1701 552.492 60.0092 551.948 60.0092C551.405 60.0092 550.958 60.1922 550.609 60.5582C550.265 60.9187 550.093 61.4539 550.093 62.1637V62.355H547.839V62.1138C547.839 60.9825 548.219 60.0619 548.979 59.3521C549.738 58.6423 550.728 58.2873 551.948 58.2873C553.218 58.2873 554.194 58.6034 554.876 59.2356C555.558 59.8678 555.902 60.6525 555.908 61.5897C555.908 62.3883 555.694 63.1009 555.267 63.7275C554.846 64.3486 554.33 64.9947 553.72 65.6657L550.784 68.8433H556.182V70.6401H547.872ZM557.413 66.5724V62.5962C557.413 61.2986 557.768 60.256 558.478 59.4685C559.188 58.6811 560.197 58.2873 561.506 58.2873C562.809 58.2873 563.816 58.6811 564.526 59.4685C565.241 60.2505 565.599 61.293 565.599 62.5962V66.5724C565.599 67.8701 565.241 68.9126 564.526 69.7001C563.81 70.4876 562.804 70.8813 561.506 70.8813C560.192 70.8813 559.18 70.4876 558.47 69.7001C557.766 68.9126 557.413 67.8701 557.413 66.5724ZM559.709 66.772C559.709 67.4819 559.851 68.0586 560.133 68.5023C560.422 68.9404 560.879 69.1594 561.506 69.1594C562.138 69.1594 562.596 68.9404 562.879 68.5023C563.167 68.0586 563.311 67.4819 563.311 66.772V62.4049C563.311 61.6951 563.167 61.1183 562.879 60.6747C562.596 60.2311 562.138 60.0092 561.506 60.0092C560.879 60.0092 560.422 60.2311 560.133 60.6747C559.851 61.1183 559.709 61.6951 559.709 62.4049V66.772ZM566.971 70.6401V69.2176L571.164 64.5511C571.663 64.002 572.048 63.5085 572.32 63.0704C572.597 62.6323 572.736 62.1692 572.736 61.6812C572.736 61.2099 572.589 60.8133 572.295 60.4917C572.007 60.1701 571.591 60.0092 571.047 60.0092C570.504 60.0092 570.057 60.1922 569.708 60.5582C569.364 60.9187 569.192 61.4539 569.192 62.1637V62.355H566.938V62.1138C566.938 60.9825 567.318 60.0619 568.078 59.3521C568.837 58.6423 569.827 58.2873 571.047 58.2873C572.317 58.2873 573.293 58.6034 573.975 59.2356C574.657 59.8678 575.001 60.6525 575.007 61.5897C575.007 62.3883 574.793 63.1009 574.366 63.7275C573.945 64.3486 573.429 64.9947 572.819 65.6657L569.883 68.8433H575.281V70.6401H566.971ZM581.528 70.6401V67.3626L581.545 66.9634V61.6563H581.445L578.384 66.223H582.111L582.685 66.2064H585.122V67.9366H576.105V66.4809L581.603 58.5286H583.691V70.6401H581.528Z" fill="#201E1E"/>
<path fill-rule="evenodd" clip-rule="evenodd" d="M595.199 59.2833C595.273 59.2089 595.361 59.1499 595.458 59.1097C595.556 59.0694 595.66 59.0487 595.765 59.0487C595.87 59.0487 595.974 59.0694 596.071 59.1097C596.168 59.1499 596.256 59.2089 596.33 59.2833L605.347 68.3023L614.365 59.2833C614.439 59.2091 614.527 59.1502 614.624 59.11C614.721 59.0698 614.825 59.0491 614.93 59.0491C615.035 59.0491 615.139 59.0698 615.236 59.11C615.333 59.1502 615.421 59.2091 615.495 59.2833C615.57 59.3576 615.629 59.4457 615.669 59.5427C615.709 59.6397 615.73 59.7437 615.73 59.8487C615.73 59.9537 615.709 60.0577 615.669 60.1547C615.629 60.2517 615.57 60.3398 615.495 60.4141L605.913 69.9968C605.838 70.0712 605.75 70.1302 605.653 70.1704C605.556 70.2107 605.452 70.2314 605.347 70.2314C605.242 70.2314 605.138 70.2107 605.041 70.1704C604.944 70.1302 604.856 70.0712 604.782 69.9968L595.199 60.4141C595.125 60.3399 595.066 60.2518 595.026 60.1548C594.985 60.0577 594.965 59.9537 594.965 59.8487C594.965 59.7437 594.985 59.6396 595.026 59.5426C595.066 59.4456 595.125 59.3575 595.199 59.2833Z" fill="#201E1E"/>
</g>
<path d="M255.014 108.335V108.273H256.006V108.335C256.006 108.876 256.195 109.296 256.574 109.595C256.952 109.895 257.445 110.044 258.052 110.044C258.651 110.044 259.14 109.895 259.518 109.595C259.897 109.296 260.086 108.847 260.086 108.248C260.086 107.628 259.872 107.166 259.443 106.863C259.015 106.555 258.468 106.401 257.803 106.401H257.029V105.559H257.74C258.36 105.559 258.851 105.411 259.213 105.116C259.574 104.821 259.755 104.417 259.755 103.905C259.755 103.373 259.599 102.972 259.287 102.701C258.975 102.431 258.564 102.296 258.052 102.296C257.536 102.296 257.108 102.435 256.767 102.714C256.43 102.988 256.262 103.369 256.262 103.856V103.937H255.276V103.856C255.276 103.182 255.538 102.612 256.062 102.146C256.586 101.676 257.249 101.441 258.052 101.441C258.847 101.441 259.5 101.668 260.011 102.121C260.523 102.57 260.778 103.149 260.778 103.856C260.778 104.28 260.654 104.681 260.404 105.06C260.159 105.438 259.78 105.731 259.269 105.939V105.964C259.814 106.089 260.257 106.349 260.598 106.744C260.943 107.135 261.115 107.64 261.115 108.26C261.115 109.059 260.824 109.699 260.242 110.182C259.664 110.66 258.934 110.899 258.052 110.899C257.154 110.903 256.422 110.668 255.856 110.194C255.295 109.716 255.014 109.096 255.014 108.335ZM262.482 107.717V104.623C262.482 103.65 262.74 102.876 263.255 102.302C263.775 101.728 264.499 101.441 265.426 101.441C266.346 101.441 267.065 101.728 267.585 102.302C268.109 102.876 268.371 103.65 268.371 104.623V107.717C268.371 108.695 268.109 109.47 267.585 110.044C267.065 110.614 266.346 110.899 265.426 110.899C264.499 110.899 263.775 110.614 263.255 110.044C262.74 109.47 262.482 108.695 262.482 107.717ZM263.511 107.767C263.511 108.449 263.667 108.998 263.979 109.414C264.295 109.83 264.778 110.038 265.426 110.038C266.071 110.038 266.551 109.83 266.868 109.414C267.184 108.998 267.342 108.449 267.342 107.767V104.579C267.342 103.905 267.184 103.359 266.868 102.938C266.551 102.514 266.071 102.302 265.426 102.302C264.778 102.302 264.295 102.514 263.979 102.938C263.667 103.359 263.511 103.905 263.511 104.579V107.767ZM270.118 110.712V101.628H271.135V106.37L275.508 101.628H276.775L271.135 107.611V110.712H270.118ZM275.776 110.712L272.145 105.946L272.813 105.241L277.055 110.712H275.776Z" fill="#9F9F9F"/>
<path d="M255.195 168.208V167.435L258.639 163.91C259.067 163.469 259.402 163.059 259.643 162.681C259.884 162.298 260.005 161.884 260.005 161.439C260.005 161.007 259.847 160.626 259.531 160.298C259.215 159.965 258.772 159.798 258.202 159.798C257.624 159.798 257.143 159.973 256.761 160.323C256.382 160.672 256.193 161.152 256.193 161.764V161.839H255.189V161.764C255.189 160.94 255.471 160.264 256.037 159.736C256.607 159.204 257.326 158.938 258.196 158.938C259.057 158.938 259.741 159.183 260.248 159.674C260.76 160.164 261.016 160.736 261.016 161.389C261.016 161.997 260.853 162.541 260.529 163.024C260.205 163.502 259.793 163.993 259.294 164.496L256.486 167.335H261.278V168.208H255.195ZM262.482 165.214V162.119C262.482 161.146 262.74 160.372 263.255 159.798C263.775 159.225 264.499 158.938 265.426 158.938C266.346 158.938 267.065 159.225 267.585 159.798C268.109 160.372 268.371 161.146 268.371 162.119V165.214C268.371 166.191 268.109 166.967 267.585 167.541C267.065 168.111 266.346 168.395 265.426 168.395C264.499 168.395 263.775 168.111 263.255 167.541C262.74 166.967 262.482 166.191 262.482 165.214ZM263.511 165.264C263.511 165.946 263.667 166.495 263.979 166.911C264.295 167.327 264.778 167.535 265.426 167.535C266.071 167.535 266.551 167.327 266.868 166.911C267.184 166.495 267.342 165.946 267.342 165.264V162.076C267.342 161.402 267.184 160.855 266.868 160.435C266.551 160.011 266.071 159.798 265.426 159.798C264.778 159.798 264.295 160.011 263.979 160.435C263.667 160.855 263.511 161.402 263.511 162.076V165.264ZM270.118 168.208V159.125H271.135V163.866L275.508 159.125H276.775L271.135 165.108V168.208H270.118ZM275.776 168.208L272.145 163.442L272.813 162.737L277.055 168.208H275.776Z" fill="#9F9F9F"/>
<path d="M258.027 225.705V217.694L255.563 218.667V217.675L258.82 216.496H259.05V225.705H258.027ZM262.482 222.71V219.616C262.482 218.642 262.74 217.869 263.255 217.295C263.775 216.721 264.499 216.434 265.426 216.434C266.346 216.434 267.065 216.721 267.585 217.295C268.109 217.869 268.371 218.642 268.371 219.616V222.71C268.371 223.688 268.109 224.463 267.585 225.037C267.065 225.607 266.346 225.892 265.426 225.892C264.499 225.892 263.775 225.607 263.255 225.037C262.74 224.463 262.482 223.688 262.482 222.71ZM263.511 222.76C263.511 223.442 263.667 223.991 263.979 224.407C264.295 224.823 264.778 225.031 265.426 225.031C266.071 225.031 266.551 224.823 266.868 224.407C267.184 223.991 267.342 223.442 267.342 222.76V219.572C267.342 218.898 267.184 218.351 266.868 217.931C266.551 217.507 266.071 217.295 265.426 217.295C264.778 217.295 264.295 217.507 263.979 217.931C263.667 218.351 263.511 218.898 263.511 219.572V222.76ZM270.118 225.705V216.621H271.135V221.363L275.508 216.621H276.775L271.135 222.604V225.705H270.118ZM275.776 225.705L272.145 220.938L272.813 220.233L277.055 225.705H275.776Z" fill="#9F9F9F"/>
<path d="M270.405 280.206V277.112C270.405 276.139 270.663 275.365 271.178 274.791C271.698 274.217 272.422 273.93 273.35 273.93C274.269 273.93 274.988 274.217 275.508 274.791C276.032 275.365 276.294 276.139 276.294 277.112V280.206C276.294 281.184 276.032 281.96 275.508 282.534C274.988 283.103 274.269 283.388 273.35 283.388C272.422 283.388 271.698 283.103 271.178 282.534C270.663 281.96 270.405 281.184 270.405 280.206ZM271.434 280.256C271.434 280.938 271.59 281.487 271.902 281.903C272.218 282.319 272.701 282.527 273.35 282.527C273.994 282.527 274.475 282.319 274.791 281.903C275.107 281.487 275.265 280.938 275.265 280.256V277.068C275.265 276.395 275.107 275.848 274.791 275.428C274.475 275.003 273.994 274.791 273.35 274.791C272.701 274.791 272.218 275.003 271.902 275.428C271.59 275.848 271.434 276.395 271.434 277.068V280.256Z" fill="#9F9F9F"/>
<path d="M297.708 229.463C297.708 224.692 297.708 222.307 298.636 220.485C299.453 218.882 300.756 217.579 302.358 216.763C304.181 215.834 306.566 215.834 311.336 215.834H313.892C318.662 215.834 321.047 215.834 322.87 216.763C324.472 217.579 325.775 218.882 326.592 220.485C327.52 222.307 327.52 224.692 327.52 229.463V245.115H297.708V229.463Z" fill="#E46666"/>
<rect x="297.708" y="245.115" width="29.8129" height="29.2806" fill="#E46666"/>
<rect x="297.708" y="274.395" width="29.8129" height="29.2806" fill="#F09393"/>
<path d="M297.708 303.676H327.52V319.328C327.52 324.098 327.52 326.483 326.592 328.306C325.775 329.908 324.472 331.211 322.87 332.028C321.047 332.956 318.662 332.956 313.892 332.956H311.336C306.566 332.956 304.181 332.956 302.358 332.028C300.756 331.211 299.453 329.908 298.636 328.306C297.708 326.483 297.708 324.098 297.708 319.328V303.676Z" fill="#F7CCCC"/>
<path d="M334.903 141.621C334.903 136.851 334.903 134.466 335.831 132.643C336.648 131.041 337.951 129.738 339.553 128.921C341.376 127.993 343.761 127.993 348.531 127.993H351.087C355.857 127.993 358.242 127.993 360.065 128.921C361.667 129.738 362.97 131.041 363.787 132.643C364.715 134.466 364.715 136.851 364.715 141.621V157.273H334.903V141.621Z" fill="#E46666"/>
<rect x="334.903" y="157.273" width="29.8129" height="29.2806" fill="#E46666"/>
<rect x="334.903" y="186.554" width="29.8129" height="29.2806" fill="#E46666"/>
<rect x="334.903" y="215.834" width="29.8129" height="29.2806" fill="#E46666"/>
<rect x="334.903" y="245.115" width="29.8129" height="29.2806" fill="#F09393"/>
<rect x="334.903" y="274.395" width="29.8129" height="29.2806" fill="#F09393"/>
<path d="M334.903 303.676H364.715V319.328C364.715 324.098 364.715 326.483 363.787 328.306C362.97 329.908 361.667 331.211 360.065 332.028C358.242 332.956 355.857 332.956 351.087 332.956H348.531C343.761 332.956 341.376 332.956 339.553 332.028C337.951 331.211 336.648 329.908 335.831 328.306C334.903 326.483 334.903 324.098 334.903 319.328V303.676Z" fill="#F7CCCC"/>
<path d="M372.098 258.744C372.098 253.973 372.098 251.588 373.026 249.766C373.843 248.163 375.146 246.86 376.748 246.043C378.571 245.115 380.956 245.115 385.726 245.115H388.282C393.052 245.115 395.438 245.115 397.26 246.043C398.862 246.86 400.165 248.163 400.982 249.766C401.911 251.588 401.911 253.973 401.911 258.744V274.395H372.098V258.744Z" fill="#E46666"/>
<rect x="372.098" y="274.395" width="29.8129" height="29.2806" fill="#F09393"/>
<path d="M372.098 303.676H401.911V319.328C401.911 324.098 401.911 326.483 400.982 328.306C400.165 329.908 398.862 331.211 397.26 332.028C395.438 332.956 393.052 332.956 388.282 332.956H385.726C380.956 332.956 378.571 332.956 376.748 332.028C375.146 331.211 373.843 329.908 373.026 328.306C372.098 326.483 372.098 324.098 372.098 319.328V303.676Z" fill="#F7CCCC"/>
<path d="M409.293 200.182C409.293 195.412 409.293 193.027 410.221 191.205C411.038 189.602 412.341 188.299 413.943 187.482C415.766 186.554 418.151 186.554 422.921 186.554H425.477C430.247 186.554 432.633 186.554 434.455 187.482C436.057 188.299 437.36 189.602 438.177 191.205C439.106 193.027 439.106 195.412 439.106 200.182V215.834H409.293V200.182Z" fill="#E46666"/>
<rect x="409.293" y="215.834" width="29.8129" height="29.2806" fill="#F09393"/>
<rect x="409.293" y="245.115" width="29.8129" height="29.2806" fill="#F09393"/>
<rect x="409.293" y="274.395" width="29.8129" height="29.2806" fill="#F09393"/>
<path d="M409.293 303.676H439.106V319.328C439.106 324.098 439.106 326.483 438.177 328.306C437.36 329.908 436.057 331.211 434.455 332.028C432.633 332.956 430.247 332.956 425.477 332.956H422.921C418.151 332.956 415.766 332.956 413.943 332.028C412.341 331.211 411.038 329.908 410.221 328.306C409.293 326.483 409.293 324.098 409.293 319.328V303.676Z" fill="#F7CCCC"/>
<path d="M446.488 170.902C446.488 166.131 446.488 163.746 447.416 161.924C448.233 160.321 449.536 159.018 451.139 158.201C452.961 157.273 455.346 157.273 460.116 157.273H462.672C467.442 157.273 469.828 157.273 471.65 158.201C473.252 159.018 474.555 160.321 475.372 161.924C476.301 163.746 476.301 166.131 476.301 170.902V186.554H446.488V170.902Z" fill="#E46666"/>
<rect x="446.488" y="186.554" width="29.8129" height="29.2806" fill="#E46666"/>
<rect x="446.488" y="215.834" width="29.8129" height="29.2806" fill="#F09393"/>
<rect x="446.488" y="245.115" width="29.8129" height="29.2806" fill="#F09393"/>
<rect x="446.488" y="274.395" width="29.8129" height="29.2806" fill="#F09393"/>
<path d="M446.488 303.676H476.301V319.328C476.301 324.098 476.301 326.483 475.372 328.306C474.555 329.908 473.252 331.211 471.65 332.028C469.828 332.956 467.442 332.956 462.672 332.956H460.116C455.346 332.956 452.961 332.956 451.139 332.028C449.536 331.211 448.233 329.908 447.416 328.306C446.488 326.483 446.488 324.098 446.488 319.328V303.676Z" fill="#F7CCCC"/>
<path d="M483.683 112.341C483.683 107.57 483.683 105.185 484.611 103.363C485.428 101.76 486.731 100.457 488.334 99.6404C490.156 98.712 492.541 98.712 497.311 98.712H499.867C504.637 98.712 507.023 98.712 508.845 99.6404C510.447 100.457 511.751 101.76 512.567 103.363C513.496 105.185 513.496 107.57 513.496 112.341V127.993H483.683V112.341Z" fill="#E46666"/>
<rect x="483.683" y="127.993" width="29.8129" height="29.2806" fill="#E46666"/>
<rect x="483.683" y="157.273" width="29.8129" height="29.2806" fill="#E46666"/>
<rect x="483.683" y="186.554" width="29.8129" height="29.2806" fill="#E46666"/>
<rect x="483.683" y="215.834" width="29.8129" height="29.2806" fill="#F09393"/>
<rect x="483.683" y="245.115" width="29.8129" height="29.2806" fill="#F09393"/>
<rect x="483.683" y="274.395" width="29.8129" height="29.2806" fill="#F09393"/>
<path d="M483.683 303.676H513.496V319.328C513.496 324.098 513.496 326.483 512.567 328.306C511.751 329.908 510.447 331.211 508.845 332.028C507.023 332.956 504.637 332.956 499.867 332.956H497.311C492.541 332.956 490.156 332.956 488.334 332.028C486.731 331.211 485.428 329.908 484.611 328.306C483.683 326.483 483.683 324.098 483.683 319.328V303.676Z" fill="#F7CCCC"/>
<path d="M520.878 229.463C520.878 224.692 520.878 222.307 521.806 220.485C522.623 218.882 523.926 217.579 525.529 216.763C527.351 215.834 529.736 215.834 534.506 215.834H537.062C541.832 215.834 544.218 215.834 546.04 216.763C547.642 217.579 548.946 218.882 549.762 220.485C550.691 222.307 550.691 224.692 550.691 229.463V245.115H520.878V229.463Z" fill="#E46666"/>
<rect x="520.878" y="245.115" width="29.8129" height="29.2806" fill="#E46666"/>
<rect x="520.878" y="274.395" width="29.8129" height="29.2806" fill="#F09393"/>
<path d="M520.878 303.676H550.691V319.328C550.691 324.098 550.691 326.483 549.762 328.306C548.946 329.908 547.642 331.211 546.04 332.028C544.218 332.956 541.832 332.956 537.062 332.956H534.506C529.736 332.956 527.351 332.956 525.529 332.028C523.926 331.211 522.623 329.908 521.806 328.306C520.878 326.483 520.878 324.098 520.878 319.328V303.676Z" fill="#F7CCCC"/>
<path d="M558.073 258.744C558.073 253.973 558.073 251.588 559.001 249.766C559.818 248.163 561.121 246.86 562.724 246.043C564.546 245.115 566.931 245.115 571.701 245.115H574.257C579.027 245.115 581.413 245.115 583.235 246.043C584.837 246.86 586.141 248.163 586.957 249.766C587.886 251.588 587.886 253.973 587.886 258.744V274.395H558.073V258.744Z" fill="#E46666"/>
<rect x="558.073" y="274.395" width="29.8129" height="29.2806" fill="#F09393"/>
<path d="M558.073 303.676H587.886V319.328C587.886 324.098 587.886 326.483 586.957 328.306C586.141 329.908 584.837 331.211 583.235 332.028C581.413 332.956 579.027 332.956 574.257 332.956H571.701C566.931 332.956 564.546 332.956 562.724 332.028C561.121 331.211 559.818 329.908 559.001 328.306C558.073 326.483 558.073 324.098 558.073 319.328V303.676Z" fill="#F7CCCC"/>
<path d="M595.268 170.902C595.268 166.131 595.268 163.746 596.196 161.924C597.013 160.321 598.316 159.018 599.919 158.202C601.741 157.273 604.126 157.273 608.897 157.273H611.452C616.222 157.273 618.608 157.273 620.43 158.202C622.033 159.018 623.336 160.321 624.152 161.924C625.081 163.746 625.081 166.131 625.081 170.902V186.554H595.268V170.902Z" fill="#E46666"/>
<rect x="595.268" y="186.554" width="29.8129" height="29.2806" fill="#E46666"/>
<rect x="595.268" y="215.834" width="29.8129" height="29.2806" fill="#E46666"/>
<rect x="595.268" y="245.115" width="29.8129" height="29.2806" fill="#F09393"/>
<rect x="595.268" y="274.395" width="29.8129" height="29.2806" fill="#F09393"/>
<path d="M595.268 303.676H625.081V319.328C625.081 324.098 625.081 326.483 624.152 328.306C623.336 329.908 622.033 331.211 620.43 332.028C618.608 332.956 616.222 332.956 611.452 332.956H608.897C604.126 332.956 601.741 332.956 599.919 332.028C598.316 331.211 597.013 329.908 596.196 328.306C595.268 326.483 595.268 324.098 595.268 319.328V303.676Z" fill="#F7CCCC"/>
<path d="M302.466 376.769V367.477H308.074V368.475H303.591V371.615H307.784V372.613H303.591V375.771H308.146V376.769H302.466ZM311.028 372.577V376.769H309.957V369.8H310.991V370.889H311.082C311.245 370.535 311.493 370.251 311.826 370.036C312.159 369.818 312.588 369.709 313.115 369.709C313.587 369.709 314 369.806 314.353 370C314.707 370.19 314.983 370.481 315.179 370.871C315.376 371.258 315.474 371.748 315.474 372.341V376.769H314.403V372.414C314.403 371.866 314.261 371.439 313.977 371.134C313.693 370.825 313.302 370.671 312.806 370.671C312.464 370.671 312.159 370.745 311.89 370.894C311.624 371.042 311.413 371.258 311.259 371.542C311.105 371.827 311.028 372.172 311.028 372.577ZM320.353 376.914C319.681 376.914 319.102 376.766 318.615 376.47C318.131 376.17 317.758 375.753 317.494 375.218C317.234 374.679 317.104 374.053 317.104 373.339C317.104 372.625 317.234 371.996 317.494 371.452C317.758 370.904 318.124 370.478 318.592 370.172C319.064 369.864 319.615 369.709 320.244 369.709C320.607 369.709 320.965 369.77 321.319 369.891C321.673 370.012 321.995 370.208 322.286 370.481C322.576 370.75 322.808 371.107 322.98 371.551C323.152 371.996 323.239 372.544 323.239 373.194V373.648H317.866V372.722H322.15C322.15 372.329 322.071 371.978 321.914 371.669C321.759 371.361 321.539 371.117 321.251 370.939C320.967 370.76 320.631 370.671 320.244 370.671C319.817 370.671 319.448 370.777 319.137 370.989C318.828 371.198 318.591 371.47 318.425 371.806C318.258 372.141 318.175 372.501 318.175 372.885V373.502C318.175 374.029 318.266 374.475 318.447 374.841C318.632 375.204 318.887 375.481 319.214 375.671C319.541 375.859 319.92 375.953 320.353 375.953C320.634 375.953 320.888 375.913 321.115 375.835C321.345 375.753 321.543 375.632 321.71 375.472C321.876 375.308 322.004 375.106 322.095 374.864L323.13 375.154C323.021 375.505 322.838 375.813 322.581 376.08C322.324 376.343 322.006 376.548 321.628 376.697C321.25 376.842 320.825 376.914 320.353 376.914Z" fill="#9F9F9F"/>
<path d="M339.754 376.769V367.477H345.326V368.475H340.88V371.615H344.909V372.613H340.88V376.769H339.754ZM349.519 376.914C348.847 376.914 348.268 376.766 347.781 376.47C347.297 376.17 346.923 375.753 346.66 375.218C346.4 374.679 346.27 374.053 346.27 373.339C346.27 372.625 346.4 371.996 346.66 371.452C346.923 370.904 347.289 370.478 347.758 370.172C348.23 369.864 348.781 369.709 349.41 369.709C349.773 369.709 350.131 369.77 350.485 369.891C350.839 370.012 351.161 370.208 351.452 370.481C351.742 370.75 351.973 371.107 352.146 371.551C352.318 371.996 352.404 372.544 352.404 373.194V373.648H347.032V372.722H351.315C351.315 372.329 351.237 371.978 351.079 371.669C350.925 371.361 350.704 371.117 350.417 370.939C350.133 370.76 349.797 370.671 349.41 370.671C348.983 370.671 348.614 370.777 348.303 370.989C347.994 371.198 347.757 371.47 347.59 371.806C347.424 372.141 347.341 372.501 347.341 372.885V373.502C347.341 374.029 347.431 374.475 347.613 374.841C347.798 375.204 348.053 375.481 348.38 375.671C348.706 375.859 349.086 375.953 349.519 375.953C349.8 375.953 350.054 375.913 350.281 375.835C350.511 375.753 350.709 375.632 350.875 375.472C351.042 375.308 351.17 375.106 351.261 374.864L352.295 375.154C352.187 375.505 352.004 375.813 351.746 376.08C351.489 376.343 351.172 376.548 350.794 376.697C350.416 376.842 349.991 376.914 349.519 376.914ZM354.178 376.769V367.477H355.249V370.907H355.34C355.419 370.786 355.528 370.632 355.667 370.444C355.809 370.254 356.011 370.084 356.275 369.936C356.541 369.785 356.901 369.709 357.355 369.709C357.941 369.709 358.459 369.856 358.906 370.149C359.354 370.443 359.703 370.859 359.954 371.397C360.205 371.936 360.331 372.571 360.331 373.303C360.331 374.041 360.205 374.681 359.954 375.222C359.703 375.76 359.355 376.178 358.911 376.474C358.466 376.768 357.953 376.914 357.373 376.914C356.925 376.914 356.567 376.84 356.297 376.692C356.028 376.541 355.821 376.37 355.676 376.179C355.531 375.986 355.419 375.826 355.34 375.698H355.213V376.769H354.178ZM355.231 373.285C355.231 373.811 355.308 374.275 355.462 374.678C355.617 375.077 355.842 375.39 356.139 375.617C356.435 375.841 356.798 375.953 357.227 375.953C357.675 375.953 358.049 375.835 358.348 375.599C358.651 375.36 358.878 375.039 359.029 374.637C359.183 374.231 359.26 373.781 359.26 373.285C359.26 372.795 359.185 372.353 359.033 371.96C358.885 371.564 358.66 371.25 358.357 371.021C358.058 370.788 357.681 370.671 357.227 370.671C356.792 370.671 356.426 370.782 356.129 371.002C355.833 371.22 355.609 371.526 355.458 371.919C355.307 372.309 355.231 372.764 355.231 373.285Z" fill="#9F9F9F"/>
<path d="M376.101 367.477H377.444L380.602 375.19H380.711L383.869 367.477H385.212V376.769H384.159V369.709H384.068L381.165 376.769H380.148L377.244 369.709H377.154V376.769H376.101V367.477ZM389.954 376.914C389.374 376.914 388.861 376.768 388.416 376.474C387.972 376.178 387.624 375.76 387.373 375.222C387.122 374.681 386.996 374.041 386.996 373.303C386.996 372.571 387.122 371.936 387.373 371.397C387.624 370.859 387.973 370.443 388.421 370.149C388.868 369.856 389.386 369.709 389.973 369.709C390.426 369.709 390.785 369.785 391.048 369.936C391.314 370.084 391.517 370.254 391.656 370.444C391.798 370.632 391.908 370.786 391.987 370.907H392.078V369.8H393.149V376.769H392.114V375.698H391.987C391.908 375.826 391.797 375.986 391.651 376.179C391.506 376.37 391.299 376.541 391.03 376.692C390.761 376.84 390.402 376.914 389.954 376.914ZM390.1 375.953C390.529 375.953 390.892 375.841 391.189 375.617C391.485 375.39 391.71 375.077 391.865 374.678C392.019 374.275 392.096 373.811 392.096 373.285C392.096 372.764 392.02 372.309 391.869 371.919C391.718 371.526 391.494 371.22 391.198 371.002C390.901 370.782 390.535 370.671 390.1 370.671C389.646 370.671 389.268 370.788 388.965 371.021C388.666 371.25 388.44 371.564 388.289 371.96C388.141 372.353 388.067 372.795 388.067 373.285C388.067 373.781 388.143 374.231 388.294 374.637C388.448 375.039 388.675 375.36 388.974 375.599C389.277 375.835 389.652 375.953 390.1 375.953ZM395.258 376.769V369.8H396.293V370.853H396.366C396.493 370.508 396.723 370.228 397.055 370.013C397.388 369.799 397.763 369.691 398.18 369.691C398.259 369.691 398.357 369.693 398.475 369.696C398.593 369.699 398.683 369.703 398.743 369.709V370.798C398.707 370.789 398.624 370.776 398.494 370.757C398.367 370.736 398.232 370.726 398.09 370.726C397.751 370.726 397.448 370.797 397.182 370.939C396.919 371.078 396.71 371.272 396.556 371.52C396.405 371.765 396.329 372.044 396.329 372.359V376.769H395.258Z" fill="#9F9F9F"/>
<path d="M415.043 376.769H413.864L417.276 367.477H418.437L421.849 376.769H420.67L417.893 368.947H417.82L415.043 376.769ZM415.479 373.139H420.234V374.138H415.479V373.139ZM423.297 376.769V367.477H424.368V370.907H424.458C424.537 370.786 424.646 370.632 424.785 370.444C424.927 370.254 425.13 370.084 425.393 369.936C425.659 369.785 426.019 369.709 426.473 369.709C427.06 369.709 427.577 369.856 428.025 370.149C428.472 370.443 428.822 370.859 429.073 371.397C429.324 371.936 429.449 372.571 429.449 373.303C429.449 374.041 429.324 374.681 429.073 375.222C428.822 375.76 428.474 376.178 428.029 376.474C427.584 376.768 427.072 376.914 426.491 376.914C426.043 376.914 425.685 376.84 425.416 376.692C425.146 376.541 424.939 376.37 424.794 376.179C424.649 375.986 424.537 375.826 424.458 375.698H424.331V376.769H423.297ZM424.349 373.285C424.349 373.811 424.427 374.275 424.581 374.678C424.735 375.077 424.96 375.39 425.257 375.617C425.553 375.841 425.916 375.953 426.346 375.953C426.793 375.953 427.167 375.835 427.466 375.599C427.769 375.36 427.996 375.039 428.147 374.637C428.301 374.231 428.378 373.781 428.378 373.285C428.378 372.795 428.303 372.353 428.152 371.96C428.003 371.564 427.778 371.25 427.476 371.021C427.176 370.788 426.8 370.671 426.346 370.671C425.91 370.671 425.544 370.782 425.248 371.002C424.951 371.22 424.727 371.526 424.576 371.919C424.425 372.309 424.349 372.764 424.349 373.285ZM431.087 376.769V369.8H432.122V370.853H432.194C432.321 370.508 432.551 370.228 432.884 370.013C433.217 369.799 433.592 369.691 434.009 369.691C434.088 369.691 434.186 369.693 434.304 369.696C434.422 369.699 434.511 369.703 434.572 369.709V370.798C434.536 370.789 434.452 370.776 434.322 370.757C434.195 370.736 434.061 370.726 433.918 370.726C433.58 370.726 433.277 370.797 433.011 370.939C432.748 371.078 432.539 371.272 432.385 371.52C432.234 371.765 432.158 372.044 432.158 372.359V376.769H431.087Z" fill="#9F9F9F"/>
<path d="M449.312 367.477H450.655L453.813 375.19H453.922L457.08 367.477H458.423V376.769H457.37V369.709H457.279L454.375 376.769H453.359L450.455 369.709H450.365V376.769H449.312V367.477ZM463.165 376.914C462.585 376.914 462.072 376.768 461.627 376.474C461.183 376.178 460.835 375.76 460.584 375.222C460.333 374.681 460.207 374.041 460.207 373.303C460.207 372.571 460.333 371.936 460.584 371.397C460.835 370.859 461.184 370.443 461.632 370.149C462.079 369.856 462.597 369.709 463.183 369.709C463.637 369.709 463.996 369.785 464.259 369.936C464.525 370.084 464.728 370.254 464.867 370.444C465.009 370.632 465.119 370.786 465.198 370.907H465.289V369.8H466.36V376.769H465.325V375.698H465.198C465.119 375.826 465.007 375.986 464.862 376.179C464.717 376.37 464.51 376.541 464.241 376.692C463.971 376.84 463.613 376.914 463.165 376.914ZM463.311 375.953C463.74 375.953 464.103 375.841 464.399 375.617C464.696 375.39 464.921 375.077 465.076 374.678C465.23 374.275 465.307 373.811 465.307 373.285C465.307 372.764 465.231 372.309 465.08 371.919C464.929 371.526 464.705 371.22 464.409 371.002C464.112 370.782 463.746 370.671 463.311 370.671C462.857 370.671 462.479 370.788 462.176 371.021C461.877 371.25 461.651 371.564 461.5 371.96C461.352 372.353 461.278 372.795 461.278 373.285C461.278 373.781 461.353 374.231 461.505 374.637C461.659 375.039 461.886 375.36 462.185 375.599C462.488 375.835 462.863 375.953 463.311 375.953ZM469.159 379.383C468.978 379.383 468.816 379.368 468.674 379.337C468.531 379.31 468.433 379.283 468.379 379.256L468.651 378.312C468.911 378.379 469.141 378.403 469.341 378.385C469.54 378.366 469.717 378.277 469.871 378.117C470.029 377.96 470.172 377.704 470.302 377.35L470.502 376.806L467.925 369.8H469.086L471.01 375.354H471.083L473.007 369.8H474.168L471.21 377.786C471.077 378.146 470.912 378.444 470.715 378.679C470.519 378.918 470.29 379.095 470.03 379.21C469.773 379.325 469.483 379.383 469.159 379.383Z" fill="#9F9F9F"/>
<path d="M492.354 367.477H493.479V374.12C493.479 374.712 493.37 375.216 493.152 375.63C492.935 376.045 492.628 376.359 492.231 376.574C491.835 376.789 491.368 376.896 490.829 376.896C490.321 376.896 489.869 376.804 489.473 376.62C489.076 376.432 488.765 376.166 488.538 375.821C488.311 375.476 488.198 375.066 488.198 374.591H489.305C489.305 374.855 489.37 375.084 489.5 375.281C489.633 375.475 489.814 375.626 490.044 375.735C490.274 375.844 490.536 375.898 490.829 375.898C491.153 375.898 491.428 375.83 491.655 375.694C491.882 375.558 492.054 375.358 492.172 375.095C492.293 374.829 492.354 374.504 492.354 374.12V367.477ZM499.981 373.92V369.8H501.052V376.769H499.981V375.59H499.908C499.745 375.944 499.491 376.244 499.146 376.493C498.801 376.738 498.366 376.86 497.839 376.86C497.404 376.86 497.017 376.765 496.678 376.574C496.339 376.381 496.073 376.09 495.879 375.703C495.686 375.313 495.589 374.821 495.589 374.228V369.8H496.66V374.156C496.66 374.664 496.802 375.069 497.086 375.372C497.374 375.674 497.74 375.826 498.184 375.826C498.45 375.826 498.721 375.757 498.996 375.621C499.275 375.485 499.508 375.277 499.695 374.995C499.886 374.714 499.981 374.355 499.981 373.92ZM504.084 372.577V376.769H503.013V369.8H504.047V370.889H504.138C504.302 370.535 504.55 370.251 504.882 370.036C505.215 369.818 505.645 369.709 506.171 369.709C506.643 369.709 507.056 369.806 507.41 370C507.763 370.19 508.039 370.481 508.235 370.871C508.432 371.258 508.53 371.748 508.53 372.341V376.769H507.459V372.414C507.459 371.866 507.317 371.439 507.033 371.134C506.749 370.825 506.358 370.671 505.862 370.671C505.521 370.671 505.215 370.745 504.946 370.894C504.68 371.042 504.469 371.258 504.315 371.542C504.161 371.827 504.084 372.172 504.084 372.577Z" fill="#9F9F9F"/>
<path d="M531.77 367.477H532.895V374.12C532.895 374.712 532.786 375.216 532.568 375.63C532.351 376.045 532.044 376.359 531.647 376.574C531.251 376.789 530.784 376.896 530.245 376.896C529.737 376.896 529.285 376.804 528.889 376.62C528.492 376.432 528.181 376.166 527.954 375.821C527.727 375.476 527.614 375.066 527.614 374.591H528.721C528.721 374.855 528.786 375.084 528.916 375.281C529.049 375.475 529.23 375.626 529.46 375.735C529.69 375.844 529.952 375.898 530.245 375.898C530.569 375.898 530.844 375.83 531.071 375.694C531.298 375.558 531.47 375.358 531.588 375.095C531.709 374.829 531.77 374.504 531.77 374.12V367.477ZM539.397 373.92V369.8H540.468V376.769H539.397V375.59H539.324C539.161 375.944 538.907 376.244 538.562 376.493C538.217 376.738 537.782 376.86 537.255 376.86C536.82 376.86 536.433 376.765 536.094 376.574C535.755 376.381 535.489 376.09 535.295 375.703C535.102 375.313 535.005 374.821 535.005 374.228V369.8H536.076V374.156C536.076 374.664 536.218 375.069 536.502 375.372C536.79 375.674 537.156 375.826 537.6 375.826C537.866 375.826 538.137 375.757 538.412 375.621C538.691 375.485 538.924 375.277 539.111 374.995C539.302 374.714 539.397 374.355 539.397 373.92ZM543.5 367.477V376.769H542.429V367.477H543.5Z" fill="#9F9F9F"/>
<path d="M562.463 376.769H561.284L564.696 367.477H565.857L569.269 376.769H568.09L565.313 368.947H565.24L562.463 376.769ZM562.899 373.139H567.654V374.138H562.899V373.139ZM573.385 379.528C572.867 379.528 572.423 379.461 572.051 379.328C571.679 379.198 571.369 379.026 571.121 378.811C570.876 378.599 570.68 378.372 570.535 378.13L571.388 377.532C571.485 377.659 571.608 377.804 571.756 377.967C571.904 378.133 572.107 378.277 572.364 378.398C572.624 378.522 572.964 378.584 573.385 378.584C573.947 378.584 574.412 378.448 574.778 378.176C575.144 377.904 575.327 377.477 575.327 376.896V375.481H575.236C575.157 375.608 575.045 375.765 574.9 375.953C574.758 376.137 574.552 376.302 574.283 376.447C574.017 376.589 573.657 376.66 573.203 376.66C572.641 376.66 572.135 376.527 571.688 376.261C571.243 375.995 570.891 375.608 570.631 375.1C570.373 374.591 570.245 373.974 570.245 373.248C570.245 372.534 570.37 371.913 570.622 371.384C570.873 370.851 571.222 370.44 571.67 370.149C572.117 369.856 572.635 369.709 573.221 369.709C573.675 369.709 574.035 369.785 574.301 369.936C574.57 370.084 574.776 370.254 574.918 370.444C575.063 370.632 575.175 370.786 575.254 370.907H575.363V369.8H576.397V376.969C576.397 377.568 576.261 378.055 575.989 378.43C575.72 378.808 575.357 379.085 574.9 379.26C574.446 379.439 573.941 379.528 573.385 379.528ZM573.348 375.698C573.778 375.698 574.141 375.6 574.437 375.404C574.734 375.207 574.959 374.924 575.113 374.555C575.268 374.186 575.345 373.744 575.345 373.23C575.345 372.728 575.269 372.285 575.118 371.901C574.967 371.517 574.743 371.216 574.446 370.998C574.15 370.78 573.784 370.671 573.348 370.671C572.895 370.671 572.517 370.786 572.214 371.016C571.915 371.246 571.689 371.554 571.538 371.942C571.39 372.329 571.316 372.758 571.316 373.23C571.316 373.714 571.391 374.142 571.543 374.514C571.697 374.883 571.924 375.174 572.223 375.385C572.526 375.594 572.901 375.698 573.348 375.698ZM581.189 376.914C580.56 376.914 580.008 376.765 579.533 376.465C579.061 376.166 578.692 375.747 578.426 375.208C578.162 374.67 578.031 374.041 578.031 373.321C578.031 372.595 578.162 371.961 578.426 371.42C578.692 370.878 579.061 370.458 579.533 370.158C580.008 369.859 580.56 369.709 581.189 369.709C581.818 369.709 582.369 369.859 582.84 370.158C583.315 370.458 583.684 370.878 583.947 371.42C584.214 371.961 584.347 372.595 584.347 373.321C584.347 374.041 584.214 374.67 583.947 375.208C583.684 375.747 583.315 376.166 582.84 376.465C582.369 376.765 581.818 376.914 581.189 376.914ZM581.189 375.953C581.667 375.953 582.06 375.83 582.369 375.585C582.677 375.34 582.905 375.018 583.054 374.619C583.202 374.219 583.276 373.787 583.276 373.321C583.276 372.855 583.202 372.421 583.054 372.019C582.905 371.616 582.677 371.291 582.369 371.043C582.06 370.795 581.667 370.671 581.189 370.671C580.711 370.671 580.318 370.795 580.009 371.043C579.701 371.291 579.472 371.616 579.324 372.019C579.176 372.421 579.102 372.855 579.102 373.321C579.102 373.787 579.176 374.219 579.324 374.619C579.472 375.018 579.701 375.34 580.009 375.585C580.318 375.83 580.711 375.953 581.189 375.953Z" fill="#9F9F9F"/>
<path d="M604.696 369.8C604.642 369.34 604.421 368.983 604.034 368.729C603.646 368.475 603.172 368.348 602.609 368.348C602.198 368.348 601.838 368.415 601.529 368.548C601.223 368.681 600.985 368.864 600.812 369.097C600.643 369.33 600.558 369.594 600.558 369.891C600.558 370.139 600.617 370.352 600.735 370.531C600.856 370.706 601.01 370.853 601.198 370.971C601.385 371.086 601.582 371.181 601.788 371.256C601.993 371.329 602.182 371.388 602.355 371.433L603.299 371.688C603.541 371.751 603.81 371.839 604.106 371.951C604.406 372.063 604.691 372.215 604.964 372.409C605.239 372.6 605.466 372.845 605.644 373.144C605.823 373.443 605.912 373.811 605.912 374.247C605.912 374.749 605.78 375.202 605.517 375.608C605.257 376.013 604.876 376.335 604.374 376.574C603.875 376.813 603.268 376.933 602.554 376.933C601.889 376.933 601.313 376.825 600.826 376.61C600.342 376.396 599.961 376.096 599.682 375.712C599.407 375.328 599.251 374.882 599.215 374.374H600.377C600.407 374.724 600.525 375.015 600.73 375.245C600.939 375.472 601.202 375.641 601.52 375.753C601.841 375.862 602.185 375.916 602.554 375.916C602.984 375.916 603.37 375.847 603.711 375.708C604.053 375.565 604.324 375.369 604.524 375.118C604.723 374.864 604.823 374.567 604.823 374.228C604.823 373.92 604.737 373.669 604.564 373.475C604.392 373.282 604.165 373.124 603.884 373.003C603.603 372.882 603.299 372.776 602.972 372.686L601.828 372.359C601.103 372.15 600.528 371.852 600.104 371.465C599.681 371.078 599.469 370.571 599.469 369.945C599.469 369.425 599.61 368.971 599.891 368.584C600.175 368.194 600.557 367.891 601.034 367.677C601.515 367.459 602.052 367.35 602.645 367.35C603.244 367.35 603.776 367.457 604.242 367.672C604.708 367.884 605.077 368.174 605.349 368.543C605.625 368.912 605.77 369.331 605.785 369.8H604.696ZM610.539 376.914C609.867 376.914 609.288 376.766 608.801 376.47C608.317 376.17 607.944 375.753 607.68 375.218C607.42 374.679 607.29 374.053 607.29 373.339C607.29 372.625 607.42 371.996 607.68 371.452C607.944 370.904 608.31 370.478 608.778 370.172C609.25 369.864 609.801 369.709 610.43 369.709C610.793 369.709 611.151 369.77 611.505 369.891C611.859 370.012 612.181 370.208 612.472 370.481C612.762 370.75 612.994 371.107 613.166 371.551C613.338 371.996 613.425 372.544 613.425 373.194V373.648H608.052V372.722H612.336C612.336 372.329 612.257 371.978 612.1 371.669C611.945 371.361 611.725 371.117 611.437 370.939C611.153 370.76 610.817 370.671 610.43 370.671C610.004 370.671 609.634 370.777 609.323 370.989C609.014 371.198 608.777 371.47 608.611 371.806C608.444 372.141 608.361 372.501 608.361 372.885V373.502C608.361 374.029 608.452 374.475 608.633 374.841C608.818 375.204 609.073 375.481 609.4 375.671C609.727 375.859 610.106 375.953 610.539 375.953C610.82 375.953 611.074 375.913 611.301 375.835C611.531 375.753 611.729 375.632 611.896 375.472C612.062 375.308 612.19 375.106 612.281 374.864L613.316 375.154C613.207 375.505 613.024 375.813 612.767 376.08C612.51 376.343 612.192 376.548 611.814 376.697C611.436 376.842 611.011 376.914 610.539 376.914ZM615.053 379.383V369.8H616.088V370.907H616.215C616.294 370.786 616.403 370.632 616.542 370.444C616.684 370.254 616.887 370.084 617.15 369.936C617.416 369.785 617.776 369.709 618.23 369.709C618.816 369.709 619.334 369.856 619.781 370.149C620.229 370.443 620.578 370.859 620.829 371.397C621.081 371.936 621.206 372.571 621.206 373.303C621.206 374.041 621.081 374.681 620.829 375.222C620.578 375.76 620.231 376.178 619.786 376.474C619.341 376.768 618.829 376.914 618.248 376.914C617.8 376.914 617.442 376.84 617.172 376.692C616.903 376.541 616.696 376.37 616.551 376.179C616.406 375.986 616.294 375.826 616.215 375.698H616.124V379.383H615.053ZM616.106 373.285C616.106 373.811 616.183 374.275 616.338 374.678C616.492 375.077 616.717 375.39 617.014 375.617C617.31 375.841 617.673 375.953 618.103 375.953C618.55 375.953 618.924 375.835 619.223 375.599C619.526 375.36 619.753 375.039 619.904 374.637C620.058 374.231 620.135 373.781 620.135 373.285C620.135 372.795 620.06 372.353 619.908 371.96C619.76 371.564 619.535 371.25 619.232 371.021C618.933 370.788 618.556 370.671 618.103 370.671C617.667 370.671 617.301 370.782 617.005 371.002C616.708 371.22 616.484 371.526 616.333 371.919C616.182 372.309 616.106 372.764 616.106 373.285Z" fill="#9F9F9F"/>
</g>
</g>
<g filter="url(#filter1_d_963_1270)">
<g clip-path="url(#clip3_963_1270)">
<path d="M-80 225.859C-80 215.7 -71.765 207.465 -61.6065 207.465H361.443C371.601 207.465 379.836 215.7 379.836 225.859V615.57C379.836 625.729 371.601 633.964 361.443 633.964H-61.6065C-71.7649 633.964 -80 625.729 -80 615.57V225.859Z" fill="#F8F8F8"/>
<path d="M-52.5332 240.71H-49.8725L-45.7524 252.677C-45.6776 252.902 -45.614 253.111 -45.5616 253.306C-45.5017 253.493 -45.4418 253.691 -45.382 253.901H-45.3034C-45.2435 253.691 -45.1836 253.489 -45.1237 253.295C-45.0639 253.1 -44.9965 252.894 -44.9217 252.677L-40.7566 240.71H-38.2868L-44.147 257.145H-46.6618L-52.5332 240.71ZM-38.0286 251.476V251.117C-38.0286 249.365 -37.5347 247.947 -36.5467 246.862C-35.5588 245.769 -34.2603 245.223 -32.6511 245.223C-31.042 245.223 -29.7996 245.732 -28.9239 246.75C-28.0483 247.768 -27.6104 249.16 -27.6104 250.926V251.835H-36.5243V250.129H-30.0129V249.904C-30.0129 249.133 -30.2337 248.475 -30.6753 247.928C-31.1094 247.375 -31.753 247.098 -32.6062 247.098C-33.6016 247.098 -34.3501 247.472 -34.8515 248.22C-35.3455 248.961 -35.5925 249.901 -35.5925 251.038V251.521C-35.5925 252.674 -35.3268 253.624 -34.7954 254.372C-34.264 255.113 -33.4632 255.484 -32.3929 255.484C-31.6969 255.484 -31.1019 255.33 -30.6079 255.024C-30.1065 254.709 -29.7023 254.335 -29.3955 253.901L-27.7227 255.046C-28.082 255.66 -28.6583 256.202 -29.4516 256.674C-30.2449 257.138 -31.2179 257.37 -32.3705 257.37C-34.1742 257.37 -35.57 256.827 -36.5579 255.742C-37.5384 254.657 -38.0286 253.235 -38.0286 251.476ZM-25.3202 257.056V245.548H-23.0637L-22.9964 247.008H-22.9402C-22.5735 246.484 -22.087 246.072 -21.4808 245.773C-20.8746 245.466 -20.1972 245.313 -19.4488 245.313C-18.2887 245.313 -17.3607 245.642 -16.6646 246.301C-15.9611 246.959 -15.6093 248.078 -15.6093 249.657V257.056H-18.023V249.68C-18.023 248.812 -18.2139 248.194 -18.5956 247.827C-18.9773 247.461 -19.5199 247.277 -20.2234 247.277C-20.8147 247.277 -21.3461 247.442 -21.8176 247.771C-22.2891 248.093 -22.6521 248.523 -22.9066 249.062V257.056H-25.3202ZM-14.1836 247.378V245.548H-7.39157V247.378H-14.1836ZM-12.2302 253.968V246.491L-12.2189 246.2V242.484H-9.82771V253.879C-9.82771 254.462 -9.72293 254.866 -9.51337 255.091C-9.30381 255.308 -8.98572 255.417 -8.55912 255.417C-8.36453 255.417 -8.17368 255.398 -7.98657 255.36C-7.79946 255.315 -7.61235 255.256 -7.42524 255.181V257.056C-7.60487 257.138 -7.85185 257.209 -8.16619 257.269C-8.47305 257.336 -8.81359 257.37 -9.1878 257.37C-10.1233 257.37 -10.8643 257.101 -11.4106 256.562C-11.957 256.023 -12.2302 255.158 -12.2302 253.968ZM-6.03316 253.688C-6.03316 252.498 -5.56539 251.577 -4.62985 250.926C-3.69432 250.275 -2.49682 249.946 -1.03738 249.938H1.4998V249.152C1.4998 248.501 1.3314 247.981 0.994609 247.592C0.665299 247.203 0.0964911 247.008 -0.711815 247.008C-1.51264 247.008 -2.09267 247.173 -2.45192 247.502C-2.81117 247.824 -2.99079 248.22 -2.99079 248.692V248.815H-5.3708V248.669C-5.3708 247.719 -4.94045 246.911 -4.07976 246.245C-3.21906 245.571 -2.06648 245.234 -0.622003 245.234C0.82247 245.234 1.94137 245.556 2.73471 246.2C3.52805 246.843 3.92472 247.831 3.92472 249.163V254.395C3.92472 254.874 3.96214 255.33 4.03698 255.765C4.11183 256.191 4.22035 256.562 4.36255 256.876V257.056H2.00499C1.9077 256.868 1.81788 256.633 1.73556 256.348C1.65323 256.056 1.60084 255.765 1.57839 255.473C1.32392 255.937 0.886086 256.352 0.264888 256.719C-0.35631 257.078 -1.14591 257.258 -2.1039 257.258C-3.22655 257.258 -4.16208 256.955 -4.91052 256.348C-5.65895 255.742 -6.03316 254.855 -6.03316 253.688ZM-3.60825 253.53C-3.60825 254.144 -3.43236 254.627 -3.0806 254.979C-2.72135 255.323 -2.17126 255.495 -1.43031 255.495C-0.659425 255.495 0.0216479 255.237 0.612909 254.72C1.20417 254.197 1.4998 253.624 1.4998 253.003V251.532H-0.678136C-1.65858 251.532 -2.39204 251.708 -2.87852 252.06C-3.36501 252.412 -3.60825 252.902 -3.60825 253.53ZM6.27106 253.553L8.65107 253.564V253.688C8.65107 254.331 8.87185 254.807 9.31343 255.113C9.76249 255.42 10.365 255.574 11.1209 255.574C11.8693 255.574 12.4531 255.428 12.8722 255.136C13.2913 254.844 13.5009 254.455 13.5009 253.968C13.5009 253.482 13.3138 253.115 12.9396 252.868C12.5654 252.614 11.7683 252.348 10.5483 252.071C9.26104 251.779 8.27685 251.364 7.59578 250.825C6.91471 250.279 6.57417 249.534 6.57417 248.591C6.57417 247.588 6.97832 246.776 7.78663 246.155C8.60242 245.533 9.69887 245.223 11.076 245.223C12.4456 245.223 13.5421 245.537 14.3653 246.166C15.1961 246.795 15.6115 247.659 15.6115 248.759V248.872H13.2539V248.726C13.2539 248.179 13.0706 247.764 12.7038 247.479C12.3446 247.188 11.7982 247.042 11.0648 247.042C10.3313 247.042 9.79243 247.173 9.44815 247.435C9.11135 247.689 8.94296 248.026 8.94296 248.445C8.94296 248.857 9.14129 249.186 9.53796 249.433C9.94211 249.672 10.7579 249.931 11.9853 250.207C13.2651 250.499 14.2344 250.918 14.893 251.465C15.5591 252.011 15.8921 252.786 15.8921 253.789C15.8921 254.866 15.4917 255.735 14.6909 256.393C13.8976 257.044 12.7113 257.37 11.1321 257.37C9.56041 257.37 8.35918 257.041 7.52842 256.382C6.69766 255.723 6.27854 254.818 6.27106 253.665V253.553ZM23.6496 261.782V245.548H25.8837L25.9511 247.008H26.0072C26.2916 246.536 26.7369 246.136 27.3431 245.807C27.9569 245.477 28.6566 245.313 29.4425 245.313C30.9019 245.313 32.0695 245.848 32.9452 246.918C33.8208 247.988 34.2587 249.384 34.2587 251.106V251.465C34.2587 253.186 33.8208 254.586 32.9452 255.664C32.077 256.741 30.9169 257.28 29.465 257.28C28.6791 257.28 27.998 257.142 27.4217 256.865C26.8454 256.588 26.3926 256.214 26.0633 255.742V261.782H23.6496ZM26.0633 253.519C26.2729 254.006 26.6209 254.44 27.1074 254.822C27.5939 255.196 28.1776 255.383 28.8587 255.383C29.8616 255.383 30.5988 255.02 31.0703 254.294C31.5493 253.568 31.7888 252.644 31.7888 251.521V251.049C31.7888 249.927 31.5493 249.01 31.0703 248.299C30.5988 247.58 29.8579 247.221 28.8475 247.221C28.1589 247.221 27.5752 247.408 27.0962 247.783C26.6247 248.157 26.2804 248.587 26.0633 249.074V253.519ZM35.9538 251.476V251.117C35.9538 249.358 36.4628 247.936 37.4806 246.851C38.506 245.766 39.8607 245.223 41.5446 245.223C43.2361 245.223 44.5907 245.766 45.6086 246.851C46.634 247.936 47.1466 249.358 47.1466 251.117V251.476C47.1466 253.235 46.634 254.657 45.6086 255.742C44.5907 256.827 43.2361 257.37 41.5446 257.37C39.8607 257.37 38.506 256.827 37.4806 255.742C36.4628 254.657 35.9538 253.235 35.9538 251.476ZM38.4237 251.061V251.532C38.4237 252.685 38.6894 253.628 39.2208 254.361C39.7521 255.095 40.5268 255.461 41.5446 255.461C42.57 255.461 43.3484 255.095 43.8797 254.361C44.4111 253.628 44.6768 252.685 44.6768 251.532V251.061C44.6768 249.908 44.4111 248.969 43.8797 248.243C43.3484 247.509 42.57 247.143 41.5446 247.143C40.5268 247.143 39.7521 247.509 39.2208 248.243C38.6894 248.969 38.4237 249.908 38.4237 251.061ZM49.5154 257.056V245.548H51.7832L51.8505 246.985H51.8954C52.1798 246.514 52.5541 246.106 53.0181 245.762C53.4896 245.41 54.0397 245.234 54.6684 245.234C54.8256 245.234 54.9902 245.253 55.1623 245.29C55.342 245.328 55.4692 245.361 55.544 245.391V247.524C55.4018 247.494 55.2484 247.472 55.0838 247.457C54.9191 247.435 54.7395 247.423 54.5449 247.423C53.9461 247.423 53.4185 247.592 52.962 247.928C52.5054 248.265 52.1649 248.692 51.9403 249.208V257.056H49.5154ZM61.0787 240.71H63.7394L67.8595 252.677C67.9343 252.902 67.998 253.111 68.0503 253.306C68.1102 253.493 68.1701 253.691 68.23 253.901H68.3086C68.3684 253.691 68.4283 253.489 68.4882 253.295C68.5481 253.1 68.6154 252.894 68.6903 252.677L72.8553 240.71H75.3251L69.4649 257.145H66.9501L61.0787 240.71ZM75.5833 251.476V251.117C75.5833 249.365 76.0773 247.947 77.0652 246.862C78.0531 245.769 79.3517 245.223 80.9608 245.223C82.5699 245.223 83.8123 245.732 84.688 246.75C85.5636 247.768 86.0015 249.16 86.0015 250.926V251.835H77.0877V250.129H83.599V249.904C83.599 249.133 83.3782 248.475 82.9366 247.928C82.5026 247.375 81.8589 247.098 81.0057 247.098C80.0103 247.098 79.2618 247.472 78.7604 248.22C78.2664 248.961 78.0194 249.901 78.0194 251.038V251.521C78.0194 252.674 78.2851 253.624 78.8165 254.372C79.3479 255.113 80.1487 255.484 81.219 255.484C81.915 255.484 82.51 255.33 83.004 255.024C83.5055 254.709 83.9096 254.335 84.2165 253.901L85.8892 255.046C85.53 255.66 84.9537 256.202 84.1603 256.674C83.367 257.138 82.394 257.37 81.2414 257.37C79.4377 257.37 78.0419 256.827 77.054 255.742C76.0735 254.657 75.5833 253.235 75.5833 251.476ZM88.2917 257.056V245.548H90.5482L90.6156 247.008H90.6717C91.0384 246.484 91.5249 246.072 92.1311 245.773C92.7374 245.466 93.4147 245.313 94.1631 245.313C95.3232 245.313 96.2513 245.642 96.9473 246.301C97.6508 246.959 98.0026 248.078 98.0026 249.657V257.056H95.5889V249.68C95.5889 248.812 95.398 248.194 95.0163 247.827C94.6346 247.461 94.092 247.277 93.3885 247.277C92.7972 247.277 92.2659 247.442 91.7943 247.771C91.3228 248.093 90.9598 248.523 90.7054 249.062V257.056H88.2917ZM100.259 251.476V251.117C100.259 249.433 100.701 248.048 101.584 246.963C102.474 245.87 103.649 245.324 105.109 245.324C105.902 245.324 106.58 245.462 107.141 245.739C107.702 246.016 108.144 246.387 108.466 246.851V240.003H110.879V257.056H108.623L108.555 255.574H108.499C108.215 256.045 107.777 256.449 107.186 256.786C106.595 257.115 105.902 257.28 105.109 257.28C103.62 257.28 102.437 256.738 101.561 255.652C100.693 254.56 100.259 253.168 100.259 251.476ZM102.729 251.521C102.729 252.629 102.968 253.549 103.447 254.283C103.926 255.016 104.675 255.383 105.693 255.383C106.366 255.383 106.943 255.196 107.422 254.822C107.901 254.447 108.245 254.017 108.454 253.53V249.051C108.245 248.565 107.904 248.138 107.433 247.771C106.961 247.405 106.381 247.221 105.693 247.221C104.682 247.221 103.934 247.588 103.447 248.321C102.968 249.055 102.729 249.975 102.729 251.083V251.521ZM113.237 251.476V251.117C113.237 249.365 113.731 247.947 114.719 246.862C115.707 245.769 117.005 245.223 118.614 245.223C120.224 245.223 121.466 245.732 122.342 246.75C123.217 247.768 123.655 249.16 123.655 250.926V251.835H114.741V250.129H121.253V249.904C121.253 249.133 121.032 248.475 120.59 247.928C120.156 247.375 119.512 247.098 118.659 247.098C117.664 247.098 116.915 247.472 116.414 248.22C115.92 248.961 115.673 249.901 115.673 251.038V251.521C115.673 252.674 115.939 253.624 116.47 254.372C117.002 255.113 117.802 255.484 118.873 255.484C119.569 255.484 120.164 255.33 120.658 255.024C121.159 254.709 121.563 254.335 121.87 253.901L123.543 255.046C123.184 255.66 122.607 256.202 121.814 256.674C121.021 257.138 120.048 257.37 118.895 257.37C117.091 257.37 115.695 256.827 114.708 255.742C113.727 254.657 113.237 253.235 113.237 251.476ZM125.272 251.476V251.117C125.272 249.433 125.713 248.048 126.596 246.963C127.487 245.87 128.662 245.324 130.122 245.324C130.915 245.324 131.592 245.462 132.154 245.739C132.715 246.016 133.156 246.387 133.478 246.851V240.003H135.892V257.056H133.635L133.568 255.574H133.512C133.228 256.045 132.79 256.449 132.198 256.786C131.607 257.115 130.915 257.28 130.122 257.28C128.632 257.28 127.45 256.738 126.574 255.652C125.706 254.56 125.272 253.168 125.272 251.476ZM127.742 251.521C127.742 252.629 127.981 253.549 128.46 254.283C128.939 255.016 129.687 255.383 130.705 255.383C131.379 255.383 131.955 255.196 132.434 254.822C132.913 254.447 133.257 254.017 133.467 253.53V249.051C133.257 248.565 132.917 248.138 132.445 247.771C131.974 247.405 131.394 247.221 130.705 247.221C129.695 247.221 128.946 247.588 128.46 248.321C127.981 249.055 127.742 249.975 127.742 251.083V251.521ZM138.249 251.476V251.117C138.249 249.358 138.758 247.936 139.776 246.851C140.802 245.766 142.156 245.223 143.84 245.223C145.532 245.223 146.886 245.766 147.904 246.851C148.93 247.936 149.442 249.358 149.442 251.117V251.476C149.442 253.235 148.93 254.657 147.904 255.742C146.886 256.827 145.532 257.37 143.84 257.37C142.156 257.37 140.802 256.827 139.776 255.742C138.758 254.657 138.249 253.235 138.249 251.476ZM140.719 251.061V251.532C140.719 252.685 140.985 253.628 141.516 254.361C142.048 255.095 142.822 255.461 143.84 255.461C144.866 255.461 145.644 255.095 146.175 254.361C146.707 253.628 146.972 252.685 146.972 251.532V251.061C146.972 249.908 146.707 248.969 146.175 248.243C145.644 247.509 144.866 247.143 143.84 247.143C142.822 247.143 142.048 247.509 141.516 248.243C140.985 248.969 140.719 249.908 140.719 251.061ZM151.811 257.056V245.548H154.079L154.146 246.985H154.191C154.475 246.514 154.85 246.106 155.314 245.762C155.785 245.41 156.335 245.234 156.964 245.234C157.121 245.234 157.286 245.253 157.458 245.29C157.638 245.328 157.765 245.361 157.84 245.391V247.524C157.697 247.494 157.544 247.472 157.379 247.457C157.215 247.435 157.035 247.423 156.841 247.423C156.242 247.423 155.714 247.592 155.258 247.928C154.801 248.265 154.461 248.692 154.236 249.208V257.056H151.811ZM158.727 251.476V251.117C158.727 249.365 159.221 247.947 160.208 246.862C161.196 245.769 162.495 245.223 164.104 245.223C165.713 245.223 166.956 245.732 167.831 246.75C168.707 247.768 169.145 249.16 169.145 250.926V251.835H160.231V250.129H166.742V249.904C166.742 249.133 166.521 248.475 166.08 247.928C165.646 247.375 165.002 247.098 164.149 247.098C163.154 247.098 162.405 247.472 161.904 248.22C161.41 248.961 161.163 249.901 161.163 251.038V251.521C161.163 252.674 161.428 253.624 161.96 254.372C162.491 255.113 163.292 255.484 164.362 255.484C165.058 255.484 165.653 255.33 166.147 255.024C166.649 254.709 167.053 254.335 167.36 253.901L169.032 255.046C168.673 255.66 168.097 256.202 167.304 256.674C166.51 257.138 165.537 257.37 164.385 257.37C162.581 257.37 161.185 256.827 160.197 255.742C159.217 254.657 158.727 253.235 158.727 251.476ZM170.761 253.553L173.141 253.564V253.688C173.141 254.331 173.362 254.807 173.804 255.113C174.253 255.42 174.855 255.574 175.611 255.574C176.36 255.574 176.943 255.428 177.363 255.136C177.782 254.844 177.991 254.455 177.991 253.968C177.991 253.482 177.804 253.115 177.43 252.868C177.056 252.614 176.259 252.348 175.039 252.071C173.751 251.779 172.767 251.364 172.086 250.825C171.405 250.279 171.064 249.534 171.064 248.591C171.064 247.588 171.469 246.776 172.277 246.155C173.093 245.533 174.189 245.223 175.566 245.223C176.936 245.223 178.032 245.537 178.856 246.166C179.686 246.795 180.102 247.659 180.102 248.759V248.872H177.744V248.726C177.744 248.179 177.561 247.764 177.194 247.479C176.835 247.188 176.289 247.042 175.555 247.042C174.822 247.042 174.283 247.173 173.938 247.435C173.602 247.689 173.433 248.026 173.433 248.445C173.433 248.857 173.632 249.186 174.028 249.433C174.432 249.672 175.248 249.931 176.476 250.207C177.755 250.499 178.725 250.918 179.383 251.465C180.049 252.011 180.382 252.786 180.382 253.789C180.382 254.866 179.982 255.735 179.181 256.393C178.388 257.044 177.202 257.37 175.622 257.37C174.051 257.37 172.849 257.041 172.019 256.382C171.188 255.723 170.769 254.818 170.761 253.665V253.553Z" fill="#201E1E"/>
<rect x="198.342" y="235.63" width="153.33" height="37.9365" rx="8.62193" fill="#F8F8F8"/>
<rect x="198.342" y="235.63" width="153.33" height="37.9365" rx="8.62193" stroke="#9F9F9F" stroke-width="1.14959"/>
<g clip-path="url(#clip4_963_1270)">
<path d="M209.954 258.102V257.859H212.388V258.066C212.388 258.761 212.61 259.281 213.053 259.629C213.502 259.97 214.127 260.141 214.93 260.141C215.726 260.141 216.337 259.973 216.762 259.638C217.187 259.302 217.4 258.859 217.4 258.308C217.4 257.77 217.193 257.348 216.78 257.042C216.373 256.737 215.529 256.407 214.247 256.054C212.87 255.671 211.846 255.183 211.176 254.59C210.511 253.998 210.179 253.174 210.179 252.12C210.179 251.013 210.598 250.118 211.436 249.435C212.274 248.753 213.409 248.411 214.84 248.411C216.271 248.411 217.415 248.764 218.271 249.471C219.133 250.172 219.564 251.1 219.564 252.255V252.48H217.175V252.291C217.175 251.686 216.977 251.201 216.582 250.836C216.193 250.471 215.615 250.288 214.849 250.288C214.083 250.288 213.517 250.438 213.151 250.737C212.786 251.037 212.604 251.447 212.604 251.968C212.604 252.453 212.798 252.83 213.187 253.099C213.577 253.363 214.418 253.674 215.711 254.033C217.064 254.411 218.088 254.911 218.783 255.533C219.477 256.15 219.825 257.027 219.825 258.165C219.825 259.35 219.378 260.287 218.486 260.976C217.6 261.664 216.415 262.009 214.93 262.009C213.457 262.009 212.259 261.67 211.337 260.994C210.415 260.317 209.954 259.353 209.954 258.102ZM221.118 257.213V256.925C221.118 255.494 221.537 254.339 222.375 253.459C223.213 252.579 224.303 252.138 225.644 252.138C226.985 252.138 228.03 252.552 228.779 253.378C229.527 254.204 229.901 255.336 229.901 256.773V257.617H222.636V256.099H227.584V255.902C227.584 255.339 227.42 254.86 227.09 254.465C226.761 254.069 226.285 253.872 225.662 253.872C224.932 253.872 224.381 254.144 224.01 254.689C223.639 255.234 223.453 255.943 223.453 256.818V257.303C223.453 258.177 223.65 258.886 224.046 259.431C224.447 259.976 225.043 260.248 225.833 260.248C226.36 260.248 226.815 260.126 227.198 259.88C227.581 259.629 227.893 259.335 228.132 259L229.767 260.069C229.473 260.608 228.988 261.069 228.312 261.452C227.635 261.829 226.821 262.018 225.869 262.018C224.372 262.018 223.204 261.578 222.366 260.697C221.534 259.811 221.118 258.65 221.118 257.213ZM231.662 265.502V252.408H233.844L233.898 253.522H233.943C234.158 253.15 234.509 252.842 234.994 252.596C235.479 252.345 236.027 252.219 236.637 252.219C237.835 252.219 238.796 252.65 239.52 253.513C240.245 254.375 240.607 255.512 240.607 256.925V257.213C240.607 258.62 240.248 259.757 239.529 260.626C238.811 261.494 237.865 261.928 236.691 261.928C236.08 261.928 235.542 261.823 235.075 261.614C234.608 261.404 234.248 261.117 233.997 260.751V265.502H231.662ZM233.997 258.749C234.152 259.114 234.413 259.437 234.778 259.719C235.143 260 235.577 260.141 236.08 260.141C236.811 260.141 237.35 259.883 237.697 259.368C238.044 258.853 238.218 258.168 238.218 257.312V256.836C238.218 255.979 238.041 255.297 237.688 254.788C237.341 254.273 236.802 254.015 236.071 254.015C235.557 254.015 235.122 254.153 234.769 254.429C234.416 254.698 234.158 255.015 233.997 255.381V258.749ZM241.281 254.132V252.408H246.948V254.132H241.281ZM242.762 259.108V253.279L242.78 253.037V250.073H245.098V259.027C245.098 259.47 245.178 259.775 245.34 259.943C245.502 260.111 245.741 260.195 246.059 260.195C246.202 260.195 246.346 260.18 246.49 260.15C246.639 260.114 246.783 260.069 246.921 260.015V261.739C246.777 261.811 246.576 261.874 246.319 261.928C246.062 261.982 245.777 262.009 245.466 262.009C244.645 262.009 243.99 261.778 243.499 261.317C243.008 260.85 242.762 260.114 242.762 259.108ZM248.555 261.748V252.408H250.908V261.748H248.555ZM248.34 249.678C248.34 249.312 248.459 249.007 248.699 248.762C248.938 248.516 249.283 248.393 249.732 248.393C250.175 248.393 250.516 248.516 250.756 248.762C251.001 249.007 251.124 249.312 251.124 249.678C251.124 250.037 251.001 250.342 250.756 250.594C250.516 250.845 250.172 250.971 249.723 250.971C249.28 250.971 248.938 250.845 248.699 250.594C248.459 250.342 248.34 250.037 248.34 249.678ZM252.803 257.213V256.925C252.803 255.494 253.223 254.339 254.061 253.459C254.899 252.579 255.989 252.138 257.33 252.138C258.671 252.138 259.716 252.552 260.464 253.378C261.213 254.204 261.587 255.336 261.587 256.773V257.617H254.321V256.099H259.27V255.902C259.27 255.339 259.105 254.86 258.776 254.465C258.447 254.069 257.971 253.872 257.348 253.872C256.617 253.872 256.067 254.144 255.695 254.689C255.324 255.234 255.139 255.943 255.139 256.818V257.303C255.139 258.177 255.336 258.886 255.731 259.431C256.132 259.976 256.728 260.248 257.519 260.248C258.045 260.248 258.5 260.126 258.884 259.88C259.267 259.629 259.578 259.335 259.818 259L261.452 260.069C261.159 260.608 260.674 261.069 259.997 261.452C259.321 261.829 258.506 262.018 257.554 262.018C256.058 262.018 254.89 261.578 254.052 260.697C253.22 259.811 252.803 258.65 252.803 257.213ZM263.347 261.748V252.408H265.548L265.602 253.539H265.655C265.949 253.126 266.332 252.803 266.805 252.57C267.278 252.336 267.79 252.219 268.341 252.219C268.987 252.219 269.547 252.354 270.02 252.623C270.493 252.887 270.841 253.288 271.062 253.827H271.098C271.439 253.294 271.873 252.893 272.4 252.623C272.933 252.354 273.508 252.219 274.125 252.219C275.071 252.219 275.825 252.504 276.388 253.072C276.951 253.635 277.232 254.578 277.232 255.902V261.748H274.888V255.839C274.888 255.216 274.756 254.764 274.493 254.483C274.235 254.195 273.858 254.051 273.361 254.051C272.93 254.051 272.553 254.174 272.23 254.42C271.906 254.659 271.649 254.982 271.457 255.39V261.748H269.113V255.857C269.113 255.222 268.981 254.764 268.718 254.483C268.461 254.195 268.077 254.051 267.568 254.051C267.137 254.051 266.763 254.171 266.446 254.411C266.128 254.65 265.874 254.976 265.682 255.39V261.748H263.347ZM279.513 261.748V248.052H281.849V253.423C282.136 253.052 282.504 252.758 282.953 252.543C283.408 252.327 283.938 252.219 284.543 252.219C285.74 252.219 286.692 252.659 287.399 253.539C288.111 254.414 288.468 255.539 288.468 256.916V257.204C288.468 258.593 288.111 259.728 287.399 260.608C286.686 261.488 285.734 261.928 284.543 261.928C283.932 261.928 283.378 261.808 282.881 261.569C282.384 261.323 282.028 261.015 281.813 260.644H281.768L281.714 261.748H279.513ZM281.849 258.722C282.004 259.093 282.256 259.422 282.603 259.71C282.956 259.997 283.399 260.141 283.932 260.141C284.663 260.141 285.201 259.874 285.549 259.341C285.896 258.802 286.07 258.117 286.07 257.285V256.854C286.07 256.021 285.896 255.342 285.549 254.815C285.207 254.282 284.663 254.015 283.914 254.015C283.393 254.015 282.956 254.159 282.603 254.447C282.256 254.734 282.004 255.063 281.849 255.435V258.722ZM290.309 261.748V252.408H292.527L292.581 253.504H292.626C292.836 253.138 293.117 252.824 293.47 252.561C293.829 252.291 294.24 252.156 294.701 252.156C294.826 252.156 294.955 252.171 295.087 252.201C295.224 252.225 295.323 252.249 295.383 252.273V254.303C295.269 254.279 295.15 254.261 295.024 254.249C294.898 254.231 294.76 254.222 294.611 254.222C294.168 254.222 293.773 254.351 293.425 254.608C293.078 254.86 292.824 255.183 292.662 255.578V261.748H290.309ZM296.129 257.213V256.925C296.129 255.494 296.548 254.339 297.386 253.459C298.224 252.579 299.314 252.138 300.655 252.138C301.996 252.138 303.041 252.552 303.79 253.378C304.538 254.204 304.912 255.336 304.912 256.773V257.617H297.646V256.099H302.595V255.902C302.595 255.339 302.43 254.86 302.101 254.465C301.772 254.069 301.296 253.872 300.673 253.872C299.943 253.872 299.392 254.144 299.021 254.689C298.649 255.234 298.464 255.943 298.464 256.818V257.303C298.464 258.177 298.661 258.886 299.056 259.431C299.458 259.976 300.053 260.248 300.844 260.248C301.371 260.248 301.826 260.126 302.209 259.88C302.592 259.629 302.903 259.335 303.143 259L304.777 260.069C304.484 260.608 303.999 261.069 303.323 261.452C302.646 261.829 301.832 262.018 300.88 262.018C299.383 262.018 298.215 261.578 297.377 260.697C296.545 259.811 296.129 258.65 296.129 257.213Z" fill="#201E1E"/>
<path fill-rule="evenodd" clip-rule="evenodd" d="M315.999 249.965C316.079 249.884 316.174 249.821 316.279 249.777C316.383 249.734 316.496 249.711 316.609 249.711C316.722 249.711 316.835 249.734 316.939 249.777C317.044 249.821 317.139 249.884 317.219 249.965L326.955 259.702L336.691 249.965C336.771 249.885 336.866 249.821 336.971 249.778C337.076 249.734 337.188 249.712 337.302 249.712C337.415 249.712 337.527 249.734 337.632 249.778C337.737 249.821 337.832 249.885 337.912 249.965C337.992 250.045 338.056 250.14 338.099 250.245C338.143 250.349 338.165 250.462 338.165 250.575C338.165 250.688 338.143 250.801 338.099 250.905C338.056 251.01 337.992 251.105 337.912 251.186L327.566 261.532C327.486 261.612 327.39 261.676 327.286 261.719C327.181 261.763 327.069 261.785 326.955 261.785C326.842 261.785 326.73 261.763 326.625 261.719C326.52 261.676 326.425 261.612 326.345 261.532L315.999 251.186C315.918 251.105 315.855 251.01 315.811 250.906C315.768 250.801 315.745 250.689 315.745 250.575C315.745 250.462 315.768 250.349 315.811 250.245C315.855 250.14 315.918 250.045 315.999 249.965Z" fill="#201E1E"/>
</g>
<g clip-path="url(#clip5_963_1270)">
<mask id="mask0_963_1270" style="mask-type:alpha" maskUnits="userSpaceOnUse" x="47" y="349" width="124" height="201">
<path fill-rule="evenodd" clip-rule="evenodd" d="M47.6546 543.15C47.1539 545.019 48.2866 546.94 50.1808 547.332C56.7665 548.697 63.5893 549.414 70.5796 549.414C125.816 549.414 170.594 504.636 170.594 449.4C170.594 396.482 129.496 353.163 77.4779 349.619C75.5334 349.487 73.9134 351.054 73.9134 353.003L73.9134 396.273C73.9134 398.089 75.3277 399.582 77.1292 399.817C101.652 403.025 120.587 424.001 120.587 449.4C120.587 477.018 98.1978 499.407 70.5796 499.407C67.9818 499.407 65.4303 499.209 62.9393 498.827C61.114 498.547 59.3172 499.625 58.8393 501.409L47.6546 543.15Z" fill="url(#paint0_linear_963_1270)"/>
</mask>
<g mask="url(#mask0_963_1270)">
<path fill-rule="evenodd" clip-rule="evenodd" d="M47.6546 543.15C47.1539 545.019 48.2866 546.94 50.1808 547.332C56.7665 548.697 63.5893 549.414 70.5796 549.414C125.816 549.414 170.594 504.636 170.594 449.4C170.594 396.482 129.496 353.163 77.4779 349.619C75.5334 349.487 73.9134 351.054 73.9134 353.003L73.9134 396.273C73.9134 398.089 75.3277 399.582 77.1292 399.817C101.652 403.025 120.587 424.001 120.587 449.4C120.587 477.018 98.1978 499.407 70.5796 499.407C67.9818 499.407 65.4303 499.209 62.9393 498.827C61.114 498.547 59.3172 499.625 58.8393 501.409L47.6546 543.15Z" fill="#4071D1"/>
</g>
<mask id="mask1_963_1270" style="mask-type:alpha" maskUnits="userSpaceOnUse" x="-24" y="364" width="69" height="69">
<path fill-rule="evenodd" clip-rule="evenodd" d="M23.1557 366.775C21.8818 364.569 19.0501 363.81 16.9111 365.194C-1.46835 377.088 -15.6977 394.848 -23.1269 415.823C-23.9933 418.27 -22.5288 420.885 -20.0221 421.557L19.5865 432.17C21.9323 432.799 24.3417 431.484 25.3122 429.258C28.9359 420.945 34.7536 413.808 42.0337 408.579C44.0845 407.106 44.8361 404.327 43.5736 402.14L23.1557 366.775Z" fill="url(#paint1_linear_963_1270)"/>
</mask>
<g mask="url(#mask1_963_1270)">
<path fill-rule="evenodd" clip-rule="evenodd" d="M23.1557 366.775C21.8818 364.569 19.0501 363.81 16.9111 365.194C-1.46835 377.088 -15.6977 394.848 -23.1269 415.823C-23.9933 418.27 -22.5288 420.885 -20.0221 421.557L19.5865 432.17C21.9323 432.799 24.3417 431.484 25.3122 429.258C28.9359 420.945 34.7536 413.808 42.0337 408.579C44.0845 407.106 44.8361 404.327 43.5736 402.14L23.1557 366.775Z" fill="#F09393"/>
</g>
<mask id="mask2_963_1270" style="mask-type:alpha" maskUnits="userSpaceOnUse" x="24" y="349" width="47" height="55">
<path fill-rule="evenodd" clip-rule="evenodd" d="M45.8509 400.973C47.0684 403.081 49.7115 403.853 51.9747 402.955C56.3231 401.23 60.9709 400.096 65.8185 399.655C68.3477 399.425 70.4108 397.388 70.4108 394.849V354.038C70.4108 351.499 68.3507 349.429 65.8137 349.544C52.0345 350.167 38.9818 353.578 27.2061 359.227C24.8696 360.348 24.0598 363.229 25.3556 365.474L45.8509 400.973Z" fill="url(#paint2_linear_963_1270)"/>
</mask>
<g mask="url(#mask2_963_1270)">
<path fill-rule="evenodd" clip-rule="evenodd" d="M45.8509 400.973C47.0684 403.081 49.7115 403.853 51.9747 402.955C56.3231 401.23 60.9709 400.096 65.8185 399.655C68.3477 399.425 70.4108 397.388 70.4108 394.849V354.038C70.4108 351.499 68.3507 349.429 65.8137 349.544C52.0345 350.167 38.9818 353.578 27.2061 359.227C24.8696 360.348 24.0598 363.229 25.3556 365.474L45.8509 400.973Z" fill="#F7CCCC"/>
</g>
<path d="M207.767 380.992C207.767 382.556 206.499 383.825 204.934 383.825C203.37 383.825 202.101 382.556 202.101 380.992C202.101 379.427 203.37 378.159 204.934 378.159C206.499 378.159 207.767 379.427 207.767 380.992Z" fill="#4071D1"/>
<path d="M212.489 376.093H213.606L216.246 383.323C216.306 383.478 216.36 383.628 216.407 383.775C216.459 383.917 216.508 384.063 216.556 384.214H216.614C216.661 384.063 216.711 383.917 216.762 383.775C216.814 383.628 216.868 383.478 216.924 383.323L219.583 376.093H220.648L217.078 385.556H216.059L212.489 376.093ZM221.036 382.187V381.98C221.036 380.947 221.315 380.106 221.875 379.456C222.438 378.802 223.185 378.475 224.115 378.475C225.044 378.475 225.756 378.776 226.251 379.379C226.751 379.981 227 380.81 227 381.864V382.29H221.636V381.464H225.98V381.38C225.98 380.769 225.827 380.274 225.522 379.895C225.216 379.516 224.754 379.327 224.134 379.327C223.45 379.327 222.933 379.581 222.585 380.089C222.236 380.592 222.062 381.223 222.062 381.98V382.187C222.062 382.936 222.245 383.564 222.611 384.072C222.976 384.58 223.547 384.833 224.321 384.833C224.773 384.833 225.16 384.743 225.483 384.562C225.806 384.377 226.073 384.151 226.284 383.885L226.949 384.433C226.729 384.743 226.396 385.029 225.948 385.292C225.505 385.554 224.962 385.686 224.321 385.686C223.258 385.686 222.445 385.361 221.881 384.711C221.317 384.057 221.036 383.215 221.036 382.187ZM228.446 385.492V378.669H229.369L229.408 379.611H229.44C229.703 379.276 230.021 379.013 230.396 378.824C230.77 378.634 231.19 378.54 231.654 378.54C232.347 378.54 232.898 378.735 233.307 379.127C233.716 379.514 233.92 380.162 233.92 381.07V385.492H232.9V381.057C232.9 380.472 232.765 380.052 232.494 379.798C232.227 379.54 231.844 379.411 231.345 379.411C230.918 379.411 230.544 379.523 230.221 379.747C229.903 379.971 229.649 380.257 229.46 380.605V385.492H228.446ZM235.379 382.187V381.98C235.379 380.982 235.637 380.16 236.154 379.514C236.67 378.865 237.372 378.54 238.258 378.54C238.762 378.54 239.192 378.63 239.549 378.811C239.911 378.987 240.201 379.22 240.421 379.508V375.577H241.44V385.492H240.517L240.472 384.569H240.446C240.257 384.857 239.971 385.105 239.588 385.311C239.205 385.518 238.762 385.621 238.258 385.621C237.372 385.621 236.67 385.298 236.154 384.653C235.637 384.003 235.379 383.181 235.379 382.187ZM236.412 382.187C236.412 382.923 236.578 383.538 236.909 384.033C237.245 384.524 237.772 384.769 238.49 384.769C238.964 384.769 239.366 384.646 239.698 384.401C240.033 384.156 240.274 383.878 240.421 383.568V380.592C240.274 380.283 240.033 380.005 239.698 379.76C239.366 379.514 238.964 379.392 238.49 379.392C237.772 379.392 237.245 379.639 236.909 380.134C236.578 380.625 236.412 381.24 236.412 381.98V382.187ZM242.97 382.187V381.98C242.97 380.947 243.25 380.106 243.81 379.456C244.373 378.802 245.12 378.475 246.05 378.475C246.979 378.475 247.691 378.776 248.186 379.379C248.685 379.981 248.935 380.81 248.935 381.864V382.29H243.571V381.464H247.915V381.38C247.915 380.769 247.762 380.274 247.457 379.895C247.151 379.516 246.689 379.327 246.069 379.327C245.385 379.327 244.868 379.581 244.52 380.089C244.171 380.592 243.997 381.223 243.997 381.98V382.187C243.997 382.936 244.18 383.564 244.545 384.072C244.911 384.58 245.481 384.833 246.256 384.833C246.708 384.833 247.095 384.743 247.418 384.562C247.741 384.377 248.008 384.151 248.218 383.885L248.883 384.433C248.664 384.743 248.33 385.029 247.883 385.292C247.44 385.554 246.897 385.686 246.256 385.686C245.193 385.686 244.38 385.361 243.816 384.711C243.252 384.057 242.97 383.215 242.97 382.187ZM249.968 382.187V381.98C249.968 380.982 250.226 380.16 250.742 379.514C251.259 378.865 251.96 378.54 252.847 378.54C253.35 378.54 253.781 378.63 254.138 378.811C254.499 378.987 254.79 379.22 255.009 379.508V375.577H256.029V385.492H255.106L255.061 384.569H255.035C254.846 384.857 254.56 385.105 254.177 385.311C253.794 385.518 253.35 385.621 252.847 385.621C251.96 385.621 251.259 385.298 250.742 384.653C250.226 384.003 249.968 383.181 249.968 382.187ZM251.001 382.187C251.001 382.923 251.166 383.538 251.498 384.033C251.833 384.524 252.361 384.769 253.079 384.769C253.553 384.769 253.955 384.646 254.286 384.401C254.622 384.156 254.863 383.878 255.009 383.568V380.592C254.863 380.283 254.622 380.005 254.286 379.76C253.955 379.514 253.553 379.392 253.079 379.392C252.361 379.392 251.833 379.639 251.498 380.134C251.166 380.625 251.001 381.24 251.001 381.98V382.187ZM257.559 382.187V381.98C257.559 380.947 257.85 380.106 258.431 379.456C259.016 378.802 259.799 378.475 260.78 378.475C261.762 378.475 262.543 378.802 263.124 379.456C263.709 380.106 264.001 380.947 264.001 381.98V382.187C264.001 383.215 263.709 384.057 263.124 384.711C262.543 385.361 261.762 385.686 260.78 385.686C259.799 385.686 259.016 385.361 258.431 384.711C257.85 384.057 257.559 383.215 257.559 382.187ZM258.592 381.98V382.187C258.592 382.936 258.775 383.564 259.141 384.072C259.511 384.58 260.057 384.833 260.78 384.833C261.503 384.833 262.048 384.58 262.413 384.072C262.784 383.564 262.969 382.936 262.969 382.187V381.98C262.969 381.227 262.784 380.597 262.413 380.089C262.048 379.581 261.503 379.327 260.78 379.327C260.057 379.327 259.511 379.581 259.141 380.089C258.775 380.597 258.592 381.227 258.592 381.98ZM265.525 385.492V378.669H266.448L266.487 379.592H266.513C266.706 379.295 266.956 379.035 267.261 378.811C267.571 378.587 267.941 378.475 268.372 378.475C268.471 378.475 268.576 378.486 268.688 378.507C268.8 378.529 268.877 378.548 268.92 378.565V379.521C268.83 379.504 268.733 379.491 268.63 379.482C268.531 379.469 268.421 379.463 268.301 379.463C267.879 379.463 267.517 379.572 267.216 379.792C266.919 380.011 266.693 380.285 266.538 380.612V385.492H265.525ZM275.95 385.492V377.197L273.407 378.197V377.184L276.77 375.964H276.996V385.492H275.95Z" fill="#201E1E"/>
<g clip-path="url(#clip6_963_1270)">
<path d="M292.055 373.91C292.055 373.784 292.105 373.664 292.193 373.576C292.282 373.487 292.402 373.437 292.527 373.437H301.97C302.095 373.437 302.215 373.487 302.304 373.576C302.392 373.664 302.442 373.784 302.442 373.91C302.442 374.418 302.431 374.901 302.41 375.36C302.783 375.422 303.14 375.558 303.46 375.76C303.78 375.962 304.056 376.226 304.272 376.536C304.488 376.846 304.64 377.197 304.718 377.567C304.797 377.937 304.801 378.319 304.729 378.69C304.658 379.061 304.513 379.415 304.302 379.729C304.092 380.044 303.821 380.313 303.505 380.521C303.19 380.729 302.835 380.872 302.463 380.94C302.091 381.009 301.71 381.003 301.34 380.922C300.594 382.683 299.567 383.544 298.665 383.765V385.817L300.011 386.153C300.194 386.199 300.367 386.281 300.518 386.394L302.253 387.696C302.333 387.756 302.391 387.839 302.421 387.933C302.45 388.028 302.449 388.129 302.418 388.224C302.387 388.318 302.326 388.399 302.246 388.457C302.166 388.515 302.069 388.546 301.97 388.546H292.527C292.428 388.546 292.331 388.515 292.251 388.457C292.17 388.399 292.11 388.318 292.079 388.224C292.048 388.129 292.047 388.028 292.076 387.933C292.106 387.839 292.164 387.756 292.244 387.696L293.979 386.394C294.13 386.281 294.303 386.199 294.486 386.153L295.832 385.817V383.765C294.93 383.544 293.903 382.683 293.157 380.921C292.787 381.003 292.405 381.009 292.033 380.94C291.661 380.872 291.306 380.729 290.99 380.521C290.674 380.313 290.402 380.044 290.192 379.729C289.981 379.415 289.836 379.061 289.765 378.689C289.693 378.318 289.697 377.935 289.776 377.565C289.855 377.195 290.007 376.844 290.223 376.534C290.44 376.223 290.716 375.96 291.037 375.758C291.357 375.556 291.714 375.42 292.088 375.359C292.066 374.876 292.055 374.393 292.055 373.91ZM292.148 376.308C291.656 376.398 291.219 376.681 290.934 377.093C290.649 377.505 290.54 378.013 290.63 378.506C290.72 378.999 291.003 379.436 291.415 379.72C291.827 380.005 292.335 380.114 292.828 380.024C292.514 379.032 292.273 377.809 292.148 376.308ZM301.67 380.024C302.162 380.114 302.671 380.005 303.083 379.72C303.495 379.436 303.777 378.999 303.868 378.506C303.958 378.013 303.848 377.505 303.564 377.093C303.279 376.681 302.842 376.398 302.35 376.308C302.224 377.81 301.983 379.032 301.67 380.024Z" fill="#E03030"/>
</g>
<path d="M314.75 383.039V382.968H315.77V383.032C315.77 383.592 315.965 384.029 316.357 384.343C316.749 384.653 317.257 384.808 317.881 384.808C318.496 384.808 318.999 384.653 319.391 384.343C319.783 384.033 319.978 383.566 319.978 382.942C319.978 382.301 319.757 381.821 319.314 381.503C318.87 381.184 318.307 381.025 317.622 381.025H316.835V380.16H317.558C318.199 380.16 318.707 380.007 319.081 379.702C319.456 379.396 319.643 378.979 319.643 378.449C319.643 377.898 319.481 377.483 319.159 377.203C318.836 376.919 318.41 376.777 317.881 376.777C317.347 376.777 316.906 376.921 316.557 377.21C316.209 377.494 316.034 377.89 316.034 378.398V378.482H315.021V378.398C315.021 377.696 315.29 377.104 315.828 376.622C316.37 376.14 317.054 375.899 317.881 375.899C318.698 375.899 319.37 376.132 319.895 376.597C320.424 377.061 320.689 377.662 320.689 378.398C320.689 378.837 320.559 379.252 320.301 379.643C320.047 380.031 319.656 380.334 319.126 380.554V380.579C319.69 380.709 320.148 380.978 320.501 381.386C320.859 381.791 321.037 382.314 321.037 382.955C321.037 383.781 320.738 384.444 320.14 384.943C319.542 385.438 318.789 385.686 317.881 385.686C316.955 385.69 316.202 385.447 315.621 384.956C315.04 384.466 314.75 383.826 314.75 383.039ZM322.367 383.013C322.367 382.436 322.535 381.95 322.87 381.554C323.206 381.154 323.63 380.861 324.142 380.676V380.65C323.733 380.478 323.385 380.201 323.096 379.818C322.812 379.435 322.67 378.983 322.67 378.462C322.67 377.692 322.944 377.072 323.49 376.603C324.037 376.134 324.706 375.899 325.498 375.899C326.285 375.899 326.95 376.134 327.492 376.603C328.039 377.068 328.312 377.688 328.312 378.462C328.312 378.983 328.17 379.435 327.886 379.818C327.606 380.201 327.26 380.478 326.847 380.65V380.676C327.368 380.853 327.794 381.143 328.125 381.548C328.456 381.948 328.622 382.436 328.622 383.013C328.622 383.861 328.321 384.519 327.718 384.988C327.116 385.453 326.376 385.686 325.498 385.686C324.62 385.686 323.877 385.453 323.271 384.988C322.668 384.519 322.367 383.861 322.367 383.013ZM323.393 382.961C323.393 383.512 323.585 383.958 323.968 384.298C324.355 384.638 324.865 384.808 325.498 384.808C326.126 384.808 326.632 384.642 327.015 384.311C327.402 383.975 327.596 383.525 327.596 382.961C327.596 382.419 327.402 381.978 327.015 381.638C326.632 381.294 326.126 381.122 325.498 381.122C324.865 381.122 324.355 381.292 323.968 381.632C323.585 381.972 323.393 382.415 323.393 382.961ZM323.684 378.514C323.684 379.013 323.852 379.426 324.187 379.753C324.523 380.08 324.96 380.244 325.498 380.244C326.036 380.244 326.47 380.08 326.802 379.753C327.137 379.426 327.305 379.013 327.305 378.514C327.305 378.006 327.137 377.591 326.802 377.268C326.47 376.941 326.036 376.777 325.498 376.777C324.96 376.777 324.523 376.941 324.187 377.268C323.852 377.591 323.684 378.006 323.684 378.514ZM330.249 384.885C330.249 384.679 330.313 384.504 330.442 384.362C330.576 384.216 330.765 384.143 331.01 384.143C331.256 384.143 331.443 384.216 331.572 384.362C331.705 384.504 331.772 384.679 331.772 384.885C331.772 385.092 331.705 385.268 331.572 385.414C331.443 385.561 331.256 385.634 331.01 385.634C330.765 385.634 330.576 385.561 330.442 385.414C330.313 385.268 330.249 385.092 330.249 384.885ZM333.302 381.528V381.335C333.302 379.695 333.758 378.38 334.671 377.391C335.587 376.396 336.844 375.899 338.44 375.899H338.576V376.784H338.44C337.205 376.784 336.211 377.154 335.458 377.894C334.705 378.63 334.328 379.755 334.328 381.27V381.593C334.328 382.763 334.55 383.592 334.993 384.078C335.441 384.564 336.002 384.808 336.678 384.808C337.354 384.808 337.874 384.605 338.24 384.201C338.606 383.796 338.789 383.228 338.789 382.497C338.789 381.782 338.606 381.231 338.24 380.844C337.874 380.453 337.356 380.257 336.685 380.257C336.052 380.257 335.495 380.459 335.013 380.863C334.531 381.264 334.29 381.808 334.29 382.497H333.889C333.889 381.571 334.167 380.82 334.722 380.244C335.282 379.663 336.009 379.372 336.904 379.372C337.795 379.372 338.505 379.661 339.034 380.237C339.564 380.81 339.828 381.563 339.828 382.497C339.828 383.443 339.533 384.212 338.944 384.801C338.359 385.391 337.603 385.686 336.678 385.686C335.736 385.686 334.937 385.352 334.283 384.685C333.629 384.014 333.302 382.961 333.302 381.528ZM340.719 378.798V378.133C340.719 377.444 340.891 376.889 341.236 376.467C341.584 376.046 342.094 375.835 342.765 375.835C343.441 375.835 343.951 376.046 344.295 376.467C344.64 376.889 344.812 377.444 344.812 378.133V378.798C344.812 379.491 344.64 380.048 344.295 380.47C343.951 380.891 343.441 381.102 342.765 381.102C342.094 381.102 341.584 380.891 341.236 380.47C340.891 380.048 340.719 379.491 340.719 378.798ZM341.629 378.798C341.629 379.228 341.711 379.581 341.875 379.856C342.042 380.132 342.339 380.27 342.765 380.27C343.191 380.27 343.488 380.132 343.656 379.856C343.824 379.581 343.908 379.228 343.908 378.798V378.133C343.908 377.703 343.824 377.35 343.656 377.074C343.488 376.799 343.191 376.661 342.765 376.661C342.339 376.661 342.042 376.799 341.875 377.074C341.711 377.35 341.629 377.703 341.629 378.133V378.798ZM349.492 376.345L343.404 385.698L342.688 385.208L348.788 375.848L349.492 376.345ZM347.387 383.316V382.652C347.387 381.963 347.559 381.408 347.904 380.986C348.252 380.564 348.762 380.354 349.434 380.354C350.109 380.354 350.619 380.564 350.964 380.986C351.308 381.408 351.48 381.963 351.48 382.652V383.316C351.48 384.009 351.308 384.567 350.964 384.988C350.619 385.41 350.109 385.621 349.434 385.621C348.762 385.621 348.252 385.41 347.904 384.988C347.559 384.567 347.387 384.009 347.387 383.316ZM348.298 383.316C348.298 383.747 348.379 384.1 348.543 384.375C348.711 384.651 349.008 384.788 349.434 384.788C349.86 384.788 350.157 384.651 350.324 384.375C350.492 384.1 350.576 383.747 350.576 383.316V382.652C350.576 382.221 350.492 381.868 350.324 381.593C350.157 381.318 349.86 381.18 349.434 381.18C349.008 381.18 348.711 381.318 348.543 381.593C348.379 381.868 348.298 382.221 348.298 382.652V383.316Z" fill="#201E1E"/>
</g>
</g>
</g>
</g>
<defs>
<filter id="filter0_d_963_1270" x="220.973" y="14.5969" width="447.194" height="416.316" filterUnits="userSpaceOnUse" color-interpolation-filters="sRGB">
<feFlood flood-opacity="0" result="BackgroundImageFix"/>
<feColorMatrix in="SourceAlpha" type="matrix" values="0 0 0 0 0 0 0 0 0 0 0 0 0 0 0 0 0 0 127 0" result="hardAlpha"/>
<feOffset dx="3.19424" dy="5.32374"/>
<feGaussianBlur stdDeviation="5.32374"/>
<feColorMatrix type="matrix" values="0 0 0 0 0 0 0 0 0 0 0 0 0 0 0 0 0 0 0.3 0"/>
<feBlend mode="normal" in2="BackgroundImageFix" result="effect1_dropShadow_963_1270"/>
<feBlend mode="normal" in="SourceGraphic" in2="effect1_dropShadow_963_1270" result="shape"/>
</filter>
<filter id="filter1_d_963_1270" x="-88.0471" y="201.717" width="482.828" height="449.49" filterUnits="userSpaceOnUse" color-interpolation-filters="sRGB">
<feFlood flood-opacity="0" result="BackgroundImageFix"/>
<feColorMatrix in="SourceAlpha" type="matrix" values="0 0 0 0 0 0 0 0 0 0 0 0 0 0 0 0 0 0 127 0" result="hardAlpha"/>
<feOffset dx="3.44877" dy="5.74795"/>
<feGaussianBlur stdDeviation="5.74795"/>
<feColorMatrix type="matrix" values="0 0 0 0 0 0 0 0 0 0 0 0 0 0 0 0 0 0 0.3 0"/>
<feBlend mode="normal" in2="BackgroundImageFix" result="effect1_dropShadow_963_1270"/>
<feBlend mode="normal" in="SourceGraphic" in2="effect1_dropShadow_963_1270" result="shape"/>
</filter>
<linearGradient id="paint0_linear_963_1270" x1="170.594" y1="349.44" x2="102.871" y2="421.229" gradientUnits="userSpaceOnUse">
<stop/>
<stop offset="1"/>
</linearGradient>
<linearGradient id="paint1_linear_963_1270" x1="45.8541" y1="362.775" x2="25.0076" y2="398.427" gradientUnits="userSpaceOnUse">
<stop/>
<stop offset="1"/>
</linearGradient>
<linearGradient id="paint2_linear_963_1270" x1="70.4108" y1="349.44" x2="52.9574" y2="375.062" gradientUnits="userSpaceOnUse">
<stop/>
<stop offset="1"/>
</linearGradient>
<clipPath id="clip0_963_1270">
<rect y="0.595947" width="727" height="410" rx="10" fill="white"/>
</clipPath>
<clipPath id="clip1_963_1270">
<path d="M228.427 36.9566C228.427 27.5479 236.054 19.9207 245.463 19.9207H637.29C646.698 19.9207 654.326 27.5479 654.326 36.9566V397.906C654.326 407.315 646.698 414.942 637.29 414.942H245.463C236.054 414.942 228.427 407.315 228.427 397.906V36.9566Z" fill="white"/>
</clipPath>
<clipPath id="clip2_963_1270">
<path d="M540.793 49.7336C540.793 47.3814 542.7 45.4746 545.052 45.4746H620.254C622.606 45.4746 624.513 47.3814 624.513 49.7336V81.676H540.793V49.7336Z" fill="white"/>
</clipPath>
<clipPath id="clip3_963_1270">
<path d="M-80 225.859C-80 215.7 -71.765 207.465 -61.6065 207.465H361.443C371.601 207.465 379.836 215.7 379.836 225.859V615.57C379.836 625.729 371.601 633.964 361.443 633.964H-61.6065C-71.7649 633.964 -80 625.729 -80 615.57V225.859Z" fill="white"/>
</clipPath>
<clipPath id="clip4_963_1270">
<path d="M202.365 239.654C202.365 237.114 204.424 235.056 206.963 235.056H343.05C345.589 235.056 347.648 237.114 347.648 239.654V274.142H202.365V239.654Z" fill="white"/>
</clipPath>
<clipPath id="clip5_963_1270">
<rect width="404.656" height="313.838" fill="white" transform="translate(-52.4098 292.535)"/>
</clipPath>
<clipPath id="clip6_963_1270">
<rect width="15.1089" height="15.1089" fill="white" transform="translate(289.694 373.437)"/>
</clipPath>
</defs>
</svg>
