<svg width="64" height="64" viewBox="0 0 64 64" fill="none" xmlns="http://www.w3.org/2000/svg">
<g clip-path="url(#clip0_447_673)">
<path d="M54.4 0H9.6C4.29807 0 0 4.29807 0 9.6V54.4C0 59.7019 4.29807 64 9.6 64H54.4C59.7019 64 64 59.7019 64 54.4V9.6C64 4.29807 59.7019 0 54.4 0Z" fill="#45D354"/>
<path d="M54.4 0H9.6C4.29807 0 0 4.29807 0 9.6V54.4C0 59.7019 4.29807 64 9.6 64H54.4C59.7019 64 64 59.7019 64 54.4V9.6C64 4.29807 59.7019 0 54.4 0Z" fill="url(#paint0_radial_447_673)" fill-opacity="0.32"/>
<path d="M38.5 34.125C38.125 33.875 37.75 33.75 37.375 34.25L35.875 36.25C35.5 36.5 35.25 36.625 34.75 36.375C32.875 35.375 30.25 34.25 28 30.5C27.875 30 28.125 29.75 28.375 29.5L29.5 27.75C29.75 27.5 29.625 27.25 29.5 27L28 23.375C27.625 22.375 27.25 22.5 26.875 22.5H25.875C25.625 22.5 25.125 22.625 24.625 23.125C21.875 25.875 23 29.75 25 32.25C25.375 32.75 27.875 37.25 33.25 39.625C37.25 41.375 38.125 41.125 39.25 40.875C40.625 40.75 42 39.625 42.625 38.5C42.75 38.125 43.375 36.5 42.875 36.25M33 48C27.875 48 24 45.25 24 45.25L17.875 46.875L19.375 40.875C19.375 40.875 16.875 37 16.875 32.125C16.875 23.125 24.25 15.625 33.375 15.625C41.875 15.625 49.125 22.25 49.125 31.5C49.125 40.5 41.875 47.875 33 48ZM13.125 51.625L23.5 48.75C26.5048 50.2883 29.8537 51.0308 33.2271 50.9065C36.6004 50.7823 39.8856 49.7955 42.7691 48.0403C45.6526 46.2852 48.0381 43.8202 49.6979 40.8808C51.3576 37.9414 52.2363 34.6256 52.25 31.25C52.25 20.5 43.75 11.875 33 11.875C29.5496 11.8838 26.1618 12.7964 23.1739 14.5219C20.1859 16.2474 17.7022 18.7255 15.9699 21.7095C14.2377 24.6935 13.3174 28.0793 13.3008 31.5296C13.2841 34.9799 14.1716 38.3744 15.875 41.375" fill="white"/>
</g>
<defs>
<radialGradient id="paint0_radial_447_673" cx="0" cy="0" r="1" gradientUnits="userSpaceOnUse" gradientTransform="translate(20.5 20.5) rotate(45) scale(61.5183)">
<stop stop-color="#FAF0F9"/>
<stop offset="1" stop-color="#FAF0F9" stop-opacity="0"/>
</radialGradient>
<clipPath id="clip0_447_673">
<rect width="64" height="64" fill="white"/>
</clipPath>
</defs>
</svg>
