<svg width="18" height="18" viewBox="0 0 18 18" fill="none" xmlns="http://www.w3.org/2000/svg">
<path fill-rule="evenodd" clip-rule="evenodd" d="M10.0118 0.357964L17.6485 8.1358C18.1172 8.61308 18.1172 9.38692 17.6485 9.8642L10.0118 17.642C9.54315 18.1193 8.78335 18.1193 8.31472 17.642C7.84609 17.1648 7.84609 16.3909 8.31472 15.9136L13.9029 10.2222C13.9029 10.2222 2.72727 10.2222 1.36364 10.2222C7.63604e-07 10.2222 7.86805e-07 9 7.86805e-07 9C7.86805e-07 9 8.10006e-07 7.77783 1.36364 7.77783C2.72727 7.77783 13.9029 7.77783 13.9029 7.77783L8.31472 2.08637C7.84609 1.60909 7.84609 0.835251 8.31472 0.357964C8.78335 -0.119322 9.54315 -0.119322 10.0118 0.357964Z" fill="#FAF0F9"/>
</svg>
